<?xml version="1.0" encoding="UTF-8" standalone="no"?>
<!-- Created with Inkscape (http://www.inkscape.org/) -->

<svg
   width="107.50145mm"
   height="23.158278mm"
   viewBox="0 0 406.3047 87.527349"
   version="1.1"
   id="svg1"
   inkscape:version="1.4.2 (ebf0e940, 2025-05-08)"
   sodipodi:docname="logo.svg"
   xmlns:inkscape="http://www.inkscape.org/namespaces/inkscape"
   xmlns:sodipodi="http://sodipodi.sourceforge.net/DTD/sodipodi-0.dtd"
   xmlns:xlink="http://www.w3.org/1999/xlink"
   xmlns="http://www.w3.org/2000/svg"
   xmlns:svg="http://www.w3.org/2000/svg">
  <sodipodi:namedview
     id="namedview1"
     pagecolor="#ffffff"
     bordercolor="#111111"
     borderopacity="1"
     inkscape:showpageshadow="0"
     inkscape:pageopacity="0"
     inkscape:pagecheckerboard="1"
     inkscape:deskcolor="#d1d1d1"
     inkscape:document-units="mm"
     showguides="true"
     inkscape:zoom="1.4090437"
     inkscape:cx="303.39727"
     inkscape:cy="-17.032829"
     inkscape:window-width="1712"
     inkscape:window-height="1073"
     inkscape:window-x="0"
     inkscape:window-y="34"
     inkscape:window-maximized="0"
     inkscape:current-layer="layer1" />
  <defs
     id="defs1">
    <inkscape:path-effect
       effect="fillet_chamfer"
       id="path-effect22"
       is_visible="true"
       lpeversion="1"
       nodesatellites_param="F,0,0,1,0,0,0,1 @ F,0,0,1,0,0,0,1 @ F,0,0,1,0,0,0,1 @ F,0,0,1,0,0,0,1 @ F,0,0,1,0,0,0,1 @ F,0,0,1,0,0,0,1 @ F,0,0,1,0,0,0,1 @ F,0,0,1,0,0,0,1 @ F,0,0,1,0,0,0,1 @ F,0,0,1,0,0,0,1 @ F,0,0,1,0,0,0,1 @ F,0,0,1,0,0,0,1 @ F,0,0,1,0,0,0,1 @ F,0,0,1,0,0,0,1 @ F,0,0,1,0,0,0,1 @ F,0,0,1,0,0,0,1 @ F,0,0,1,0,0,0,1 | F,0,0,1,0,0,0,1 @ F,0,0,1,0,0,0,1 @ F,0,0,1,0,0,0,1 @ F,0,0,1,0,0,0,1 @ F,0,0,1,0,0,0,1 @ F,0,0,1,0,0,0,1 @ F,0,0,1,0,0,0,1 @ F,0,0,1,0,0,0,1 @ F,0,0,1,0,0,0,1 | F,0,0,1,0,0,0,1 @ F,0,0,1,0,0,0,1 @ F,0,0,1,0,0,0,1 @ F,0,0,1,0,0,0,1 | F,0,0,1,0,0,0,1 @ F,0,0,1,0,0,0,1 @ F,0,0,1,0,0,0,1 @ F,0,0,1,0,0,0,1 | F,0,0,1,0,0,0,1 @ F,0,0,1,0,0,0,1 @ F,0,0,1,0,0,0,1 @ F,0,0,1,0,0,0,1"
       radius="0"
       unit="px"
       method="auto"
       mode="F"
       chamfer_steps="1"
       flexible="false"
       use_knot_distance="true"
       apply_no_radius="true"
       apply_with_radius="true"
       only_selected="false"
       hide_knots="false" />
    <inkscape:path-effect
       effect="fillet_chamfer"
       id="path-effect21"
       is_visible="true"
       lpeversion="1"
       nodesatellites_param="F,0,0,1,0,0,0,1 @ F,0,0,1,0,0,0,1 @ F,0,0,1,0,0,0,1 @ F,0,0,1,0,0,0,1 @ F,0,0,1,0,0,0,1 @ F,0,0,1,0,0,0,1"
       radius="0"
       unit="px"
       method="auto"
       mode="F"
       chamfer_steps="1"
       flexible="false"
       use_knot_distance="true"
       apply_no_radius="true"
       apply_with_radius="true"
       only_selected="false"
       hide_knots="false" />
    <inkscape:path-effect
       effect="fillet_chamfer"
       id="path-effect20"
       is_visible="true"
       lpeversion="1"
       nodesatellites_param="F,0,0,1,0,0,0,1 @ F,0,0,1,0,0,0,1 @ F,0,0,1,0,0,0,1 @ F,0,0,1,0,0,0,1 @ F,0,0,1,0,0,0,1 @ F,0,0,1,0,0,0,1 @ F,0,0,1,0,0,0,1 @ F,0,0,1,0,0,0,1 @ F,0,0,1,0,0,0,1 @ F,0,0,1,0,0,0,1 @ F,0,0,1,0,0,0,1 @ F,0,0,1,0,0,0,1 @ F,0,0,1,0,0,0,1 @ F,0,0,1,0,0,0,1 @ F,0,0,1,0,0,0,1 @ F,0,0,1,0,0,0,1 @ F,0,0,1,0,0,0,1 | F,0,0,1,0,0,0,1 @ F,0,0,1,0,0,0,1 @ F,0,0,1,0,0,0,1 @ F,0,0,1,0,0,0,1 @ F,0,0,1,0,0,0,1 @ F,0,0,1,0,0,0,1 @ F,0,0,1,0,0,0,1 @ F,0,0,1,0,0,0,1 @ F,0,0,1,0,0,0,1 | F,0,0,1,0,2.5397575,0,1 @ F,0,0,1,0,0,0,1 @ F,0,0,1,0,0,0,1 @ F,0,0,1,0,0,0,1 | F,0,0,1,0,0,0,1 @ F,0,0,1,0,0,0,1 @ F,0,0,1,0,0,0,1 @ F,0,0,1,0,0,0,1 | F,0,0,1,0,4.1707198,0,1 @ F,0,0,1,0,0,0,1 @ F,0,0,1,0,0,0,1 @ F,0,0,1,0,4.4966309,0,1"
       radius="0"
       unit="px"
       method="auto"
       mode="F"
       chamfer_steps="1"
       flexible="false"
       use_knot_distance="true"
       apply_no_radius="true"
       apply_with_radius="true"
       only_selected="false"
       hide_knots="false" />
    <linearGradient
       id="linearGradient2"
       inkscape:collect="always">
      <stop
         style="stop-color:#000000;stop-opacity:1;"
         offset="0.81088823"
         id="stop2" />
      <stop
         style="stop-color:#000000;stop-opacity:0;"
         offset="1"
         id="stop3" />
    </linearGradient>
    <linearGradient
       inkscape:collect="always"
       xlink:href="#linearGradient2"
       id="linearGradient4"
       gradientUnits="userSpaceOnUse"
       x1="171.94418"
       y1="148.92824"
       x2="600.24878"
       y2="148.92824" />
  </defs>
  <g
     inkscape:label="Слой 1"
     inkscape:groupmode="layer"
     id="layer1"
     transform="translate(-171.94336,-105.16406)">
    <text
       xml:space="preserve"
       style="font-style:normal;font-variant:normal;font-weight:500;font-stretch:normal;font-size:192px;font-family:'Hitachi HD44780';-inkscape-font-specification:'Hitachi HD44780 Medium';text-align:start;writing-mode:lr-tb;direction:ltr;text-anchor:start;fill:#628a91;stroke:#000000;stroke-width:3.77953"
       x="206.4249"
       y="474.91217"
       id="text1"><tspan
         sodipodi:role="line"
         id="tspan1"
         x="206.4249"
         y="474.91217" /></text>
    <path
       style="font-weight:500;font-size:60.8532px;font-family:'Hitachi HD44780';-inkscape-font-specification:'Hitachi HD44780 Medium';baseline-shift:baseline;display:inline;overflow:visible;opacity:1;vector-effect:none;stroke-linecap:round;stroke-linejoin:round;enable-background:accumulate;stop-color:#000000;stop-opacity:1"
       d="m 528.40039,105.16406 c -0.64396,5e-5 -1.16597,0.52206 -1.16602,1.16602 v 11.00586 h -11.0039 c -0.64395,5e-5 -1.16597,0.52206 -1.16602,1.16601 v 12.16992 c 5e-5,0.64396 0.52206,1.16597 1.16602,1.16602 h 12.16992 c 0.64396,-5e-5 1.16597,-0.52206 1.16602,-1.16602 v -11.0039 h 34.17968 v 22.00976 h -11.0039 c -0.64396,5e-5 -1.16597,0.52206 -1.16602,1.16602 v 11.00391 h -11.00586 c -0.64395,5e-5 -1.16596,0.52206 -1.16601,1.16601 v 11.00391 h -11.00391 c -0.64395,5e-5 -1.16597,0.52206 -1.16602,1.16601 v 11.00586 h -11.0039 c -0.64396,5e-5 -1.16597,0.52206 -1.16602,1.16602 v 12.16992 c 5e-5,0.64396 0.52206,1.16597 1.16602,1.16602 h 60.85156 c 0.64396,-5e-5 1.16597,-0.52206 1.16602,-1.16602 v -12.16992 c -5e-5,-0.64396 -0.52206,-1.16597 -1.16602,-1.16602 h -35.3457 v -9.83984 h 11.00586 c 0.64395,-5e-5 1.16596,-0.52207 1.16601,-1.16602 v -11.0039 h 11.00391 c 0.64395,-5e-5 1.16596,-0.52207 1.16601,-1.16602 v -11.0039 h 11.00391 c 0.64396,-5e-5 1.16597,-0.52206 1.16602,-1.16602 v -24.3418 c -5e-5,-0.64395 -0.52207,-1.16596 -1.16602,-1.16601 h -11.00391 v -11.00586 c -5e-5,-0.64395 -0.52206,-1.16597 -1.16601,-1.16602 z m 1.16602,2.33203 h 34.17968 v 9.83985 h -34.17968 z m -12.16993,12.17188 h 9.83789 v 9.83789 h -9.83789 z m 48.68164,0 h 9.8379 v 22.00976 h -9.8379 z m -12.16992,24.3418 h 9.83789 v 9.83789 h -9.83789 z m -12.17187,12.16992 h 9.83984 v 9.83789 h -9.83984 z m -12.16992,12.16992 h 9.83789 v 9.83984 h -9.83789 z m -12.16993,12.17187 h 11.00391 12.16992 35.34571 v 9.83789 h -58.51954 z"
       id="path19"
       sodipodi:nodetypes="cccccccccccccccccccccccccccccccccccccccccccccccccccccccccccccccccccccccccccccccccc" />
    <path
       style="font-weight:500;font-size:60.8532px;font-family:'Hitachi HD44780';-inkscape-font-specification:'Hitachi HD44780 Medium';baseline-shift:baseline;display:inline;overflow:visible;opacity:1;vector-effect:none;stroke-linecap:round;stroke-linejoin:round;enable-background:accumulate;stop-color:#000000;stop-opacity:1"
       d="m 479.54687,105.16406 c -0.64395,5e-5 -1.16596,0.52207 -1.16601,1.16602 v 11.00586 h -11.00391 c -0.64395,5e-5 -1.16596,0.52206 -1.16601,1.16601 v 12.16992 c 5e-5,0.64395 0.52206,1.16597 1.16601,1.16602 h 11.00391 v 46.35156 h -11.00391 c -0.64395,5e-5 -1.16596,0.52207 -1.16601,1.16602 v 12.16992 c 5e-5,0.64395 0.52206,1.16597 1.16601,1.16602 h 36.51172 c 0.64396,-5e-5 1.16597,-0.52206 1.16602,-1.16602 v -12.16992 c -5e-5,-0.64396 -0.52206,-1.16597 -1.16602,-1.16602 h -11.00586 v -71.85937 c -5e-5,-0.64395 -0.52206,-1.16597 -1.16601,-1.16602 z m 1.16602,2.33203 h 9.83789 v 70.69336 h -9.83789 v -47.51758 -12.16992 z m -12.16992,12.17188 h 9.83789 v 9.83789 h -9.83789 z m 0,60.85351 h 11.0039 12.16993 11.00586 v 9.83789 h -34.17969 z"
       id="path18"
       sodipodi:nodetypes="cccccccccccccccccccccccccccccccccccccccc" />
    <path
       style="font-weight:500;font-size:60.8532px;font-family:'Hitachi HD44780';-inkscape-font-specification:'Hitachi HD44780 Medium';baseline-shift:baseline;display:inline;overflow:visible;opacity:1;vector-effect:none;stroke-linecap:round;stroke-linejoin:round;enable-background:accumulate;stop-color:#000000;stop-opacity:1"
       d="m 440.86523,105.16406 c -0.64395,5e-5 -1.16596,0.52207 -1.16601,1.16602 v 36.51367 c 5e-5,0.64395 0.52206,1.16597 1.16601,1.16602 h 12.16993 c 0.64395,-5e-5 1.16596,-0.52207 1.16601,-1.16602 v -36.51367 c -5e-5,-0.64395 -0.52206,-1.16597 -1.16601,-1.16602 z m 1.16602,2.33203 h 9.83789 v 34.18164 h -9.83789 z"
       id="path17"
       sodipodi:nodetypes="cccccccccccccc" />
    <path
       style="font-weight:500;font-size:60.8532px;font-family:'Hitachi HD44780';-inkscape-font-specification:'Hitachi HD44780 Medium';baseline-shift:baseline;display:inline;overflow:visible;opacity:1;vector-effect:none;stroke-linecap:round;stroke-linejoin:round;enable-background:accumulate;stop-color:#000000;stop-opacity:1"
       d="m 392.18164,105.16406 c -0.64396,5e-5 -1.16597,0.52206 -1.16602,1.16602 v 36.51367 c 5e-5,0.64396 0.52206,1.16597 1.16602,1.16602 h 11.00391 v 11.0039 c 5e-5,0.64395 0.52206,1.16597 1.16601,1.16602 h 11.00586 v 35.3457 c 5e-5,0.64396 0.52206,1.16597 1.16602,1.16602 h 12.16992 c 0.64395,-5e-5 1.16596,-0.52207 1.16601,-1.16602 v -35.3457 h 11.00586 c 0.64396,-5e-5 1.16597,-0.52206 1.16602,-1.16602 v -12.16992 c -5e-5,-0.64396 -0.52206,-1.16597 -1.16602,-1.16602 h -12.17187 c -0.64396,5e-5 -1.16597,0.52206 -1.16602,1.16602 v 11.00391 h -9.83789 v -11.00391 c -5e-5,-0.64395 -0.52206,-1.16597 -1.16601,-1.16602 h -11.00586 v -35.34765 c -5e-5,-0.64396 -0.52206,-1.16597 -1.16602,-1.16602 z m 1.16602,2.33203 h 9.83789 v 34.18164 h -9.83789 z m 12.16992,36.51368 h 9.83984 v 9.83789 h -9.83984 z m 24.34179,0 h 9.83985 v 9.83789 h -9.83985 z m -12.16992,12.16992 h 9.83789 v 34.17968 h -9.83789 z"
       id="path16"
       sodipodi:nodetypes="ccccccccccccccccccccccccccccccccccccccccccccccc" />
    <path
       style="font-weight:500;font-size:60.8532px;font-family:'Hitachi HD44780';-inkscape-font-specification:'Hitachi HD44780 Medium';baseline-shift:baseline;display:inline;overflow:visible;opacity:1;vector-effect:none;stroke-linecap:round;stroke-linejoin:round;enable-background:accumulate;stop-color:#000000;stop-opacity:1"
       d="m 317.99219,191.52539 c 5e-5,0.64395 0.52206,1.16597 1.16601,1.16602 h 12.16992 c 0.64396,-5e-5 1.16597,-0.52206 1.16602,-1.16602 v -23.17578 h 34.17969 v 23.17578 c 5e-5,0.64395 0.52206,1.16597 1.16601,1.16602 h 12.17188 c 0.64395,-5e-5 1.16596,-0.52207 1.16601,-1.16602 v -73.02344 c -5e-5,-0.64395 -0.52206,-1.16596 -1.16601,-1.16601 h -11.00586 v -11.00586 c -5e-5,-0.64396 -0.52206,-1.16597 -1.16602,-1.16602 h -36.51172 c -0.64395,5e-5 -1.16596,0.52207 -1.16601,1.16602 v 11.00586 H 319.1582 c -0.64395,5e-5 -1.16596,0.52206 -1.16601,1.16601 m 0,0 v 73.02344 m 14.50195,-84.0293 h 34.17969 v 9.83985 h -34.17969 z m -12.16992,12.17188 h 9.83789 v 35.3457 12.16992 23.17578 h -9.83789 z m 12.16992,34.17969 v -34.17969 h 34.17969 v 34.17969 h -34.17969 m 36.51172,-34.17969 h 9.83984 v 70.6914 h -9.83984 v -23.17578 -12.16992 z m -36.51172,36.51172 h 34.17969 v 9.83789 h -34.17969 v -9.83789"
       id="path15"
       sodipodi:nodetypes="ccccccccccccccccccccccccccccccccccccccccccccccccccc" />
    <path
       style="font-weight:500;font-size:60.8532px;font-family:'Hitachi HD44780';-inkscape-font-specification:'Hitachi HD44780 Medium';baseline-shift:baseline;display:inline;overflow:visible;opacity:1;vector-effect:none;stroke-linecap:round;stroke-linejoin:round;enable-background:accumulate;stop-color:#000000;stop-opacity:1"
       d="m 246.13477,105.16406 c -0.64396,5e-5 -1.16597,0.52206 -1.16602,1.16602 v 85.19531 c 5e-5,0.64396 0.52206,1.16597 1.16602,1.16602 h 60.85156 c 0.64395,-5e-5 1.16596,-0.52207 1.16601,-1.16602 v -12.16992 c -5e-5,-0.64395 -0.52206,-1.16597 -1.16601,-1.16602 H 259.4707 v -71.85937 c -5e-5,-0.64395 -0.52206,-1.16597 -1.16601,-1.16602 z m 1.16601,2.33203 h 9.83789 v 10.78907 c -0.004,0.004 -0.008,0.008 -0.0117,0.0117 v 72.06249 h -9.82617 z m 12.1582,73.02539 h 46.36133 v 9.83789 h -46.36133 z"
       id="path14"
       sodipodi:nodetypes="cccccccccccccccccccccccc" />
    <path
       style="font-weight:500;font-size:60.8532px;font-family:'Hitachi HD44780';-inkscape-font-specification:'Hitachi HD44780 Medium';baseline-shift:baseline;display:inline;overflow:visible;opacity:1;vector-effect:none;stroke-linecap:round;stroke-linejoin:round;enable-background:accumulate;stop-color:#000000;stop-opacity:1"
       d="m 173.10937,105.16406 c -0.64395,5e-5 -1.16596,0.52207 -1.16601,1.16602 v 85.19531 c 5e-5,0.64395 0.52206,1.16597 1.16601,1.16602 h 12.17188 c 0.64396,-5e-5 1.16597,-0.52206 1.16602,-1.16602 v -35.3457 h 35.3457 c 0.64395,-5e-5 1.16596,-0.52207 1.16601,-1.16602 v -11.0039 h 11.00391 c 0.64396,-5e-5 1.16597,-0.52206 1.16602,-1.16602 v -24.3418 c -5e-5,-0.64395 -0.52207,-1.16596 -1.16602,-1.16601 h -11.00391 v -11.00586 c -5e-5,-0.64395 -0.52206,-1.16597 -1.16601,-1.16602 z m 1.16602,2.33203 h 46.35156 v 9.83985 h -35.3457 c -0.64395,5e-5 -1.16597,0.52206 -1.16602,1.16601 v 24.3418 12.16992 35.3457 h -9.83984 z m 12.17188,12.17188 h 34.17968 v 22.00976 h -34.17968 z m 36.51171,0 h 9.83789 v 22.00976 h -9.83789 z m -36.51171,24.3418 h 34.17968 v 9.83789 h -34.17968 z"
       id="text2"
       sodipodi:nodetypes="ccccccccccccccccccccccccccccccccccccccccccc" />
    <path
       style="font-weight:500;font-size:60.8532px;font-family:'Hitachi HD44780';-inkscape-font-specification:'Hitachi HD44780 Medium';baseline-shift:baseline;display:inline;overflow:visible;opacity:1;vector-effect:none;stroke-linecap:round;stroke-linejoin:round;enable-background:accumulate;stop-color:#000000;stop-opacity:1"
       d="m 185.29297,105.89844 c -0.64398,-2e-5 -1.16603,0.52203 -1.16602,1.16601 v 36.25977 c -1e-5,0.64398 0.52204,1.16603 1.16602,1.16601 0.64398,1e-5 1.16602,-0.52203 1.16601,-1.16601 v -36.25977 c 1e-5,-0.64398 -0.52203,-1.16602 -1.16601,-1.16601 z"
       id="path1"
       sodipodi:nodetypes="sccsccs" />
  </g>
</svg>
