<?xml version="1.0" encoding="UTF-8"?>
<!-- Created with Inkscape (http://www.inkscape.org/) -->
<svg width="432.22mm" height="147.01mm" version="1.1" viewBox="0 0 432.22 147.01" xmlns="http://www.w3.org/2000/svg">
 <g transform="translate(198.57 346.86)" stroke-linecap="round" stroke-linejoin="round">
  <g transform="translate(64.114 -202.22)" fill="none" stroke="#000">
   <g stroke-width=".9758">
    <path d="m-262.12-112.75c-0.0519 0.32939-0.0786 0.6674-0.0786 1.0118v107.23c0 3.5446 2.8535 6.3986 6.3981 6.3986h6.2435c3.5446 0 6.3981-2.854 6.3981-6.3986v-36.325c-0.49335 0.16657-1.0155 0.2558-1.5565 0.2558-3.0586 0-5.5211-2.8532-5.5211-6.397v-65.248c0-0.17697 6e-3 -0.35229 0.0186-0.52555z"/>
    <path d="m-239.22-112.75c0.0112 0.16618 0.0165 0.33427 0.0165 0.50385v65.248c0 2.4835-1.2091 4.6277-2.9854 5.6885v36.799c0 3.5446 2.8535 6.3986 6.3981 6.3986h6.2436c3.5446 0 6.398-2.854 6.398-6.3986v-36.715c-1.8348-1.0376-3.0928-3.2179-3.0928-5.7511v-65.248c0-0.17701 6e-3 -0.35225 0.0181-0.52555z"/>
    <path d="m-215.16-112.75c8e-3 0.14257 0.0119 0.28649 0.0119 0.4315v65.248c0 3.5439-2.462 6.397-5.5206 6.397-0.52013 0-1.0227-0.0823-1.4991-0.23667v36.4c0 3.5446 2.8535 6.3986 6.398 6.3986h6.2436c3.5446 0 6.3981-2.854 6.3981-6.3986v-107.23c0-0.34442-0.0271-0.68243-0.0791-1.0118z"/>
   </g>
   <g stroke-width=".99956">
    <path d="m-155.11-112.74c0.011 0.165 0.0165 0.33189 0.0165 0.50023v65.248c0 3.3436-2.192 6.0725-5.0085 6.3702v36.099c0 3.5438 2.9948 6.397 6.7148 6.397h6.5526c3.72 0 6.7148-2.8532 6.7148-6.397v-37.515c-1.228-1.1714-2.0087-2.9477-2.0087-4.9428v-65.248c0-0.17225 6e-3 -0.34286 0.0176-0.5116z"/>
    <path d="m-179.11-112.74c0.0118 0.17094 0.0176 0.34377 0.0176 0.51831v65.248c0 1.9992-0.78371 3.7787-2.0159 4.9501v37.501c0 3.5438 2.9948 6.397 6.7148 6.397h6.5526c3.72 0 6.7143-2.8532 6.7143-6.397v-36.086c-2.8166-0.29765-5.0085-3.0265-5.0085-6.3702v-65.248c0-0.17293 6e-3 -0.34427 0.0176-0.51366z"/>
    <path d="m-202.03-112.74c-0.0545 0.32932-0.0827 0.66748-0.0827 1.0118v107.21c0 3.5438 2.9948 6.397 6.7148 6.397h6.5526c3.72 0 6.7148-2.8532 6.7148-6.397v-36.735c-0.74525 0.43319-1.5879 0.67644-2.4815 0.67644-3.0586 0-5.5211-2.8532-5.5211-6.397v-65.248c0-0.17293 6e-3 -0.34427 0.0176-0.51366z"/>
    <path d="m-131.11-112.74c0.0116 0.16939 0.0171 0.34073 0.0171 0.51366v65.248c0 3.5439-2.4621 6.397-5.5206 6.397-0.8938 0-1.7366-0.24362-2.482-0.67696v36.736c0 3.5438 2.9943 6.397 6.7143 6.397h6.5526c3.72 0 6.7148-2.8532 6.7148-6.397v-107.21c0-0.34434-0.0281-0.6825-0.0827-1.0118z"/>
   </g>
   <g stroke-width=".95832">
    <path d="m-142.1-112.56c-0.0125 0.1761-0.0191 0.35438-0.0191 0.53433v65.248c0 3.5439 2.4626 6.397 5.5211 6.397 3.0585 0 5.5206-2.8532 5.5206-6.397v-65.248c0-0.17995-6e-3 -0.35823-0.0186-0.53433z"/>
    <path d="m-250.29-112.76c-0.0125 0.1761-0.0191 0.35438-0.0191 0.53433v65.248c0 3.5439 2.4626 6.397 5.5211 6.397 3.0585 0 5.5206-2.8532 5.5206-6.397v-65.248c0-0.17995-6e-3 -0.35823-0.0186-0.53433z"/>
    <path d="m-226.19-112.79c-0.0125 0.1761-0.0191 0.35438-0.0191 0.53433v65.248c0 3.5439 2.4626 6.397 5.5211 6.397 3.0585 0 5.5206-2.8532 5.5206-6.397v-65.248c0-0.17995-6e-3 -0.35823-0.0186-0.53433z"/>
    <path d="m-190.12-112.75c-0.0125 0.1761-0.0191 0.35438-0.0191 0.53433v65.248c0 3.5439 2.4626 6.397 5.5211 6.397 3.0585 0 5.5206-2.8532 5.5206-6.397v-65.248c0-0.17995-6e-3 -0.35823-0.0186-0.53433z"/>
    <path d="m-166.1-112.78c-0.0125 0.1761-0.0191 0.35438-0.0191 0.53433v65.248c0 3.5439 2.4626 6.397 5.5211 6.397 3.0585 0 5.5206-2.8532 5.5206-6.397v-65.248c0-0.17995-6e-3 -0.35823-0.0186-0.53433z"/>
   </g>
  </g>
  <g transform="translate(208.19 -202.22)" fill="none" stroke="#000">
   <g stroke-width=".9758">
    <path d="m-262.12-112.75c-0.0519 0.32939-0.0786 0.6674-0.0786 1.0118v107.23c0 3.5446 2.8535 6.3986 6.3981 6.3986h6.2435c3.5446 0 6.3981-2.854 6.3981-6.3986v-36.325c-0.49335 0.16657-1.0155 0.2558-1.5565 0.2558-3.0586 0-5.5211-2.8532-5.5211-6.397v-65.248c0-0.17697 6e-3 -0.35229 0.0186-0.52555z"/>
    <path d="m-239.22-112.75c0.0112 0.16618 0.0165 0.33427 0.0165 0.50385v65.248c0 2.4835-1.2091 4.6277-2.9854 5.6885v36.799c0 3.5446 2.8535 6.3986 6.3981 6.3986h6.2436c3.5446 0 6.398-2.854 6.398-6.3986v-36.715c-1.8348-1.0376-3.0928-3.2179-3.0928-5.7511v-65.248c0-0.17701 6e-3 -0.35225 0.0181-0.52555z"/>
    <path d="m-215.16-112.75c8e-3 0.14257 0.0119 0.28649 0.0119 0.4315v65.248c0 3.5439-2.462 6.397-5.5206 6.397-0.52013 0-1.0227-0.0823-1.4991-0.23667v36.4c0 3.5446 2.8535 6.3986 6.398 6.3986h6.2436c3.5446 0 6.3981-2.854 6.3981-6.3986v-107.23c0-0.34442-0.0271-0.68243-0.0791-1.0118z"/>
   </g>
   <g stroke-width=".99956">
    <path d="m-155.11-112.74c0.011 0.165 0.0165 0.33189 0.0165 0.50023v65.248c0 3.3436-2.192 6.0725-5.0085 6.3702v36.099c0 3.5438 2.9948 6.397 6.7148 6.397h6.5526c3.72 0 6.7148-2.8532 6.7148-6.397v-37.515c-1.228-1.1714-2.0087-2.9477-2.0087-4.9428v-65.248c0-0.17225 6e-3 -0.34286 0.0176-0.5116z"/>
    <path d="m-179.11-112.74c0.0118 0.17094 0.0176 0.34377 0.0176 0.51831v65.248c0 1.9992-0.78371 3.7787-2.0159 4.9501v37.501c0 3.5438 2.9948 6.397 6.7148 6.397h6.5526c3.72 0 6.7143-2.8532 6.7143-6.397v-36.086c-2.8166-0.29765-5.0085-3.0265-5.0085-6.3702v-65.248c0-0.17293 6e-3 -0.34427 0.0176-0.51366z"/>
    <path d="m-202.03-112.74c-0.0545 0.32932-0.0827 0.66748-0.0827 1.0118v107.21c0 3.5438 2.9948 6.397 6.7148 6.397h6.5526c3.72 0 6.7148-2.8532 6.7148-6.397v-36.735c-0.74525 0.43319-1.5879 0.67644-2.4815 0.67644-3.0586 0-5.5211-2.8532-5.5211-6.397v-65.248c0-0.17293 6e-3 -0.34427 0.0176-0.51366z"/>
    <path d="m-131.11-112.74c0.0116 0.16939 0.0171 0.34073 0.0171 0.51366v65.248c0 3.5439-2.4621 6.397-5.5206 6.397-0.8938 0-1.7366-0.24362-2.482-0.67696v36.736c0 3.5438 2.9943 6.397 6.7143 6.397h6.5526c3.72 0 6.7148-2.8532 6.7148-6.397v-107.21c0-0.34434-0.0281-0.6825-0.0827-1.0118z"/>
   </g>
   <g stroke-width=".95832">
    <path d="m-142.1-112.56c-0.0125 0.1761-0.0191 0.35438-0.0191 0.53433v65.248c0 3.5439 2.4626 6.397 5.5211 6.397 3.0585 0 5.5206-2.8532 5.5206-6.397v-65.248c0-0.17995-6e-3 -0.35823-0.0186-0.53433z"/>
    <path d="m-250.29-112.76c-0.0125 0.1761-0.0191 0.35438-0.0191 0.53433v65.248c0 3.5439 2.4626 6.397 5.5211 6.397 3.0585 0 5.5206-2.8532 5.5206-6.397v-65.248c0-0.17995-6e-3 -0.35823-0.0186-0.53433z"/>
    <path d="m-226.19-112.79c-0.0125 0.1761-0.0191 0.35438-0.0191 0.53433v65.248c0 3.5439 2.4626 6.397 5.5211 6.397 3.0585 0 5.5206-2.8532 5.5206-6.397v-65.248c0-0.17995-6e-3 -0.35823-0.0186-0.53433z"/>
    <path d="m-190.12-112.75c-0.0125 0.1761-0.0191 0.35438-0.0191 0.53433v65.248c0 3.5439 2.4626 6.397 5.5211 6.397 3.0585 0 5.5206-2.8532 5.5206-6.397v-65.248c0-0.17995-6e-3 -0.35823-0.0186-0.53433z"/>
    <path d="m-166.1-112.78c-0.0125 0.1761-0.0191 0.35438-0.0191 0.53433v65.248c0 3.5439 2.4626 6.397 5.5211 6.397 3.0585 0 5.5206-2.8532 5.5206-6.397v-65.248c0-0.17995-6e-3 -0.35823-0.0186-0.53433z"/>
   </g>
  </g>
  <g transform="translate(352.26 -202.22)" fill="none" stroke="#000">
   <g stroke-width=".9758">
    <path d="m-262.12-112.75c-0.0519 0.32939-0.0786 0.6674-0.0786 1.0118v107.23c0 3.5446 2.8535 6.3986 6.3981 6.3986h6.2435c3.5446 0 6.3981-2.854 6.3981-6.3986v-36.325c-0.49335 0.16657-1.0155 0.2558-1.5565 0.2558-3.0586 0-5.5211-2.8532-5.5211-6.397v-65.248c0-0.17697 6e-3 -0.35229 0.0186-0.52555z"/>
    <path d="m-239.22-112.75c0.0112 0.16618 0.0165 0.33427 0.0165 0.50385v65.248c0 2.4835-1.2091 4.6277-2.9854 5.6885v36.799c0 3.5446 2.8535 6.3986 6.3981 6.3986h6.2436c3.5446 0 6.398-2.854 6.398-6.3986v-36.715c-1.8348-1.0376-3.0928-3.2179-3.0928-5.7511v-65.248c0-0.17701 6e-3 -0.35225 0.0181-0.52555z"/>
    <path d="m-215.16-112.75c8e-3 0.14257 0.0119 0.28649 0.0119 0.4315v65.248c0 3.5439-2.462 6.397-5.5206 6.397-0.52013 0-1.0227-0.0823-1.4991-0.23667v36.4c0 3.5446 2.8535 6.3986 6.398 6.3986h6.2436c3.5446 0 6.3981-2.854 6.3981-6.3986v-107.23c0-0.34442-0.0271-0.68243-0.0791-1.0118z"/>
   </g>
   <g stroke-width=".99956">
    <path d="m-155.11-112.74c0.011 0.165 0.0165 0.33189 0.0165 0.50023v65.248c0 3.3436-2.192 6.0725-5.0085 6.3702v36.099c0 3.5438 2.9948 6.397 6.7148 6.397h6.5526c3.72 0 6.7148-2.8532 6.7148-6.397v-37.515c-1.228-1.1714-2.0087-2.9477-2.0087-4.9428v-65.248c0-0.17225 6e-3 -0.34286 0.0176-0.5116z"/>
    <path d="m-179.11-112.74c0.0118 0.17094 0.0176 0.34377 0.0176 0.51831v65.248c0 1.9992-0.78371 3.7787-2.0159 4.9501v37.501c0 3.5438 2.9948 6.397 6.7148 6.397h6.5526c3.72 0 6.7143-2.8532 6.7143-6.397v-36.086c-2.8166-0.29765-5.0085-3.0265-5.0085-6.3702v-65.248c0-0.17293 6e-3 -0.34427 0.0176-0.51366z"/>
    <path d="m-202.03-112.74c-0.0545 0.32932-0.0827 0.66748-0.0827 1.0118v107.21c0 3.5438 2.9948 6.397 6.7148 6.397h6.5526c3.72 0 6.7148-2.8532 6.7148-6.397v-36.735c-0.74525 0.43319-1.5879 0.67644-2.4815 0.67644-3.0586 0-5.5211-2.8532-5.5211-6.397v-65.248c0-0.17293 6e-3 -0.34427 0.0176-0.51366z"/>
    <path d="m-131.11-112.74c0.0116 0.16939 0.0171 0.34073 0.0171 0.51366v65.248c0 3.5439-2.4621 6.397-5.5206 6.397-0.8938 0-1.7366-0.24362-2.482-0.67696v36.736c0 3.5438 2.9943 6.397 6.7143 6.397h6.5526c3.72 0 6.7148-2.8532 6.7148-6.397v-107.21c0-0.34434-0.0281-0.6825-0.0827-1.0118z"/>
   </g>
   <g stroke-width=".95832">
    <path d="m-142.1-112.56c-0.0125 0.1761-0.0191 0.35438-0.0191 0.53433v65.248c0 3.5439 2.4626 6.397 5.5211 6.397 3.0585 0 5.5206-2.8532 5.5206-6.397v-65.248c0-0.17995-6e-3 -0.35823-0.0186-0.53433z"/>
    <path d="m-250.29-112.76c-0.0125 0.1761-0.0191 0.35438-0.0191 0.53433v65.248c0 3.5439 2.4626 6.397 5.5211 6.397 3.0585 0 5.5206-2.8532 5.5206-6.397v-65.248c0-0.17995-6e-3 -0.35823-0.0186-0.53433z"/>
    <path d="m-226.19-112.79c-0.0125 0.1761-0.0191 0.35438-0.0191 0.53433v65.248c0 3.5439 2.4626 6.397 5.5211 6.397 3.0585 0 5.5206-2.8532 5.5206-6.397v-65.248c0-0.17995-6e-3 -0.35823-0.0186-0.53433z"/>
    <path d="m-190.12-112.75c-0.0125 0.1761-0.0191 0.35438-0.0191 0.53433v65.248c0 3.5439 2.4626 6.397 5.5211 6.397 3.0585 0 5.5206-2.8532 5.5206-6.397v-65.248c0-0.17995-6e-3 -0.35823-0.0186-0.53433z"/>
    <path d="m-166.1-112.78c-0.0125 0.1761-0.0191 0.35438-0.0191 0.53433v65.248c0 3.5439 2.4626 6.397 5.5211 6.397 3.0585 0 5.5206-2.8532 5.5206-6.397v-65.248c0-0.17995-6e-3 -0.35823-0.0186-0.53433z"/>
   </g>
  </g>
  <g fill="#e96e40" stroke="#f3f3f0">
   <path transform="matrix(.26458 0 0 .26458 -590.65 76.556)" d="m1629.7-1215.8-6.4556-5.5518-0.6318-127.9-0.6317-127.9h37.04l-0.6317 127.9-0.6317 127.9-6.4556 5.5518c-3.5506 3.0535-8.4109 5.5518-10.801 5.5518s-7.2501-2.4983-10.801-5.5518z" stroke-width="4.0872" style="paint-order:stroke fill markers"/>
   <path transform="matrix(.26458 0 0 .26458 -590.65 76.556)" d="m2173.4-1217.3-5.9566-7.0791v-252.74h34.513v255.6l-5.6475 5.6475c-7.7309 7.7308-15.613 7.2383-22.908-1.4315z" stroke-width="4.0872" style="paint-order:stroke fill markers"/>
  </g>
  <g fill="#cef932" stroke="#f3f3f0" stroke-width="4.0872">
   <path transform="matrix(.26458 0 0 .26458 -590.65 76.556)" d="m2718.3-1215.9-5.6475-5.6475v-255.6h34.513v253.45l-6.7255 6.7255c-8.2081 8.2081-14.694 8.5239-22.14 1.078z" style="paint-order:stroke fill markers"/>
   <path transform="matrix(.26458 0 0 .26458 -590.65 76.556)" d="m2173.6-1219-6.1825-6.4532v-251.69h34.513v255.06l-6.0624 4.7687c-8.2539 6.4925-14.916 5.9885-22.268-1.6845z" style="paint-order:stroke fill markers"/>
   <path transform="matrix(.26458 0 0 .26458 -590.65 76.556)" d="m1630.4-1217.7-5.751-5.1769-0.7046-127.12-0.7045-127.12h34.513l-0.7046 127.12-0.7046 127.12-5.751 5.1769c-3.1631 2.8473-7.7063 5.1769-10.096 5.1769s-6.9331-2.3296-10.096-5.1769z" style="paint-order:stroke fill markers"/>
  </g>
  <g fill="#e96e40" stroke="#f3f3f0" stroke-width="4.0872">
   <path transform="matrix(.26458 0 0 .26458 -590.65 76.556)" d="m1883.9-1052.8c-3.4482-1.8713-7.3309-5.3856-8.6282-7.8096-1.4631-2.7339-2.3587-31.051-2.3587-74.579 0-68.931 0.084-70.199 4.7605-71.683 2.6182-0.831 6.7559-4.7834 9.1947-8.7832 4.237-6.9487 4.4348-12.929 4.443-134.39l0.01-127.12h43.716v128.41c0 109.34 0.5016 129.07 3.3781 132.87 2.7987 3.7003 3.3906 16.778 3.4512 76.259 0.079 77.341-0.4541 81.289-11.765 87.138-8.4841 4.3873-37.91 4.1912-46.2-0.3078z" style="paint-order:stroke fill markers"/>
   <path transform="matrix(.26458 0 0 .26458 -590.65 76.556)" d="m2429.2-1052.7c-3.4482-1.9366-7.3309-5.5044-8.6281-7.9284-1.4627-2.733-2.3587-30.983-2.3587-74.365v-69.958l5.3877-2.4549c2.9633-1.3501 7.1048-6.0732 9.2034-10.496 3.4088-7.1835 3.8156-21.434 3.8156-133.66v-125.62h41.415l0.101 123.67c0.091 110.97 0.5015 124.62 4.0022 132.87 3.3948 8.0085 3.9044 18.83 3.9255 83.354l0.024 74.151-6.3787 6.3785c-5.8027 5.8025-8.0886 6.433-25.309 6.9806-13.648 0.434-20.68-0.3807-25.2-2.9193z" style="paint-order:stroke fill markers"/>
   <path transform="matrix(.26458 0 0 .26458 -590.65 76.556)" d="m2975.9-1051.4c-2.6725-1.0798-7.0729-4.7776-9.7786-8.2174-4.7801-6.0769-4.9194-8.2336-4.9194-76.12 0-58.613 0.5229-69.865 3.2467-69.865 1.7857 0 5.9272-3.1856 9.2034-7.079l5.9566-7.0791v-257.34h43.716v125.47c0 106.32 0.5266 126.73 3.4513 133.73 2.8194 6.748 3.4512 21.504 3.4512 80.607 0 45.22-0.8883 74.007-2.369 76.773-4.0665 7.5983-14.678 11.387-31.454 11.231-8.6048-0.08-17.832-1.0294-20.504-2.1092z" style="paint-order:stroke fill markers"/>
  </g>
  <g transform="translate(0 -.24994)" fill="#e96e40" font-family="inter" font-size="16.933px" stroke="#f3f3f0">
   <text x="-89.356071" y="-318.39175" stroke-width=".47" style="paint-order:stroke fill markers" xml:space="preserve"><tspan x="-89.356071" y="-318.39175" stroke-width=".47">0</tspan></text>
   <text x="-75.7845" y="-318.39175" stroke-width=".47" style="paint-order:stroke fill markers" xml:space="preserve"><tspan x="-75.7845" y="-318.39175" stroke-width=".47">1</tspan></text>
   <text x="-65.435486" y="-318.29254" stroke-width=".47" style="paint-order:stroke fill markers" xml:space="preserve"><tspan x="-65.435486" y="-318.29254" stroke-width=".47">2</tspan></text>
   <text x="-53.488506" y="-318.39175" stroke-width=".47" style="paint-order:stroke fill markers" xml:space="preserve"><tspan x="-53.488506" y="-318.39175" stroke-width=".47">3</tspan></text>
   <text x="-41.617615" y="-318.39175" stroke-width=".47" style="paint-order:stroke fill markers" xml:space="preserve"><tspan x="-41.617615" y="-318.39175">4</tspan><tspan x="-41.617615" y="-297.22513"/></text>
   <text x="-29.0618" y="-318.47443" stroke-width=".47" style="paint-order:stroke fill markers" xml:space="preserve"><tspan x="-29.0618" y="-318.47443" stroke-width=".47">5</tspan></text>
   <text x="-17.562664" y="-318.39175" stroke-width=".47" style="paint-order:stroke fill markers" xml:space="preserve"><tspan x="-17.562664" y="-318.39175" stroke-width=".47">6</tspan></text>
   <text x="-5.3251677" y="-318.39175" stroke-width=".47" style="paint-order:stroke fill markers" xml:space="preserve"><tspan x="-5.3251677" y="-318.39175" stroke-width=".47">7</tspan></text>
   <text x="7.2586455" y="-318.39175" stroke-width=".47" style="paint-order:stroke fill markers" xml:space="preserve"><tspan x="7.2586455" y="-318.39175" stroke-width=".47">8</tspan></text>
   <text x="18.688026" y="-318.39175" stroke-width=".47" style="paint-order:stroke fill markers" xml:space="preserve"><tspan x="18.688026" y="-318.39175" stroke-width=".47">9</tspan></text>
   <text x="30.117392" y="-318.39175" stroke-width=".47" style="paint-order:stroke fill markers" xml:space="preserve"><tspan x="30.117392" y="-318.39175" stroke-width=".47">X</tspan></text>
   <text x="42.239441" y="-318.39175" stroke-width=".47" style="paint-order:stroke fill markers" xml:space="preserve"><tspan x="42.239441" y="-318.39175" stroke-width=".47">Y</tspan></text>
  </g>
  <g fill="#cef932" font-family="inter" font-size="16.933px" stroke="#f3f3f0">
   <g transform="translate(-71.924 -15.714)">
    <text x="-89.356071" y="-318.39175" stroke-width=".47" style="paint-order:stroke fill markers" xml:space="preserve"><tspan x="-89.356071" y="-318.39175" fill="#cef932" stroke-width=".47">0</tspan></text>
    <text x="-75.7845" y="-318.39175" stroke-width=".47" style="paint-order:stroke fill markers" xml:space="preserve"><tspan x="-75.7845" y="-318.39175" fill="#cef932" stroke-width=".47">1</tspan></text>
    <text x="-65.435486" y="-318.29254" stroke-width=".47" style="paint-order:stroke fill markers" xml:space="preserve"><tspan x="-65.435486" y="-318.29254" fill="#cef932" stroke-width=".47">2</tspan></text>
    <text x="-53.488506" y="-318.39175" stroke-width=".47" style="paint-order:stroke fill markers" xml:space="preserve"><tspan x="-53.488506" y="-318.39175" fill="#cef932" stroke-width=".47">3</tspan></text>
    <text x="-41.617615" y="-318.39175" stroke-width=".47" style="paint-order:stroke fill markers" xml:space="preserve"><tspan x="-41.617615" y="-318.39175">4</tspan><tspan x="-41.617615" y="-297.22513"/></text>
    <text x="-29.0618" y="-318.47443" stroke-width=".47" style="paint-order:stroke fill markers" xml:space="preserve"><tspan x="-29.0618" y="-318.47443" fill="#cef932" stroke-width=".47">5</tspan></text>
    <text x="-17.562664" y="-318.39175" stroke-width=".47" style="paint-order:stroke fill markers" xml:space="preserve"><tspan x="-17.562664" y="-318.39175" fill="#cef932" stroke-width=".47">6</tspan></text>
    <text x="-5.3251677" y="-318.39175" stroke-width=".47" style="paint-order:stroke fill markers" xml:space="preserve"><tspan x="-5.3251677" y="-318.39175" fill="#cef932" stroke-width=".47">7</tspan></text>
    <text x="7.2586455" y="-318.39175" stroke-width=".47" style="paint-order:stroke fill markers" xml:space="preserve"><tspan x="7.2586455" y="-318.39175" fill="#cef932" stroke-width=".47">8</tspan></text>
    <text x="18.688026" y="-318.39175" stroke-width=".47" style="paint-order:stroke fill markers" xml:space="preserve"><tspan x="18.688026" y="-318.39175" fill="#cef932" stroke-width=".47">9</tspan></text>
    <text x="30.117392" y="-318.39175" stroke-width=".47" style="paint-order:stroke fill markers" xml:space="preserve"><tspan x="30.117392" y="-318.39175" fill="#cef932" stroke-width=".47">X</tspan></text>
    <text x="42.239441" y="-318.39175" stroke-width=".47" style="paint-order:stroke fill markers" xml:space="preserve"><tspan x="42.239441" y="-318.39175" fill="#cef932" stroke-width=".47">Y</tspan></text>
   </g>
   <g transform="translate(71.757 -15.714)">
    <text x="-89.356071" y="-318.39175" stroke-width=".47" style="paint-order:stroke fill markers" xml:space="preserve"><tspan x="-89.356071" y="-318.39175" fill="#cef932" stroke-width=".47">0</tspan></text>
    <text x="-75.7845" y="-318.39175" stroke-width=".47" style="paint-order:stroke fill markers" xml:space="preserve"><tspan x="-75.7845" y="-318.39175" fill="#cef932" stroke-width=".47">1</tspan></text>
    <text x="-65.435486" y="-318.29254" stroke-width=".47" style="paint-order:stroke fill markers" xml:space="preserve"><tspan x="-65.435486" y="-318.29254" fill="#cef932" stroke-width=".47">2</tspan></text>
    <text x="-53.488506" y="-318.39175" stroke-width=".47" style="paint-order:stroke fill markers" xml:space="preserve"><tspan x="-53.488506" y="-318.39175" fill="#cef932" stroke-width=".47">3</tspan></text>
    <text x="-41.617615" y="-318.39175" stroke-width=".47" style="paint-order:stroke fill markers" xml:space="preserve"><tspan x="-41.617615" y="-318.39175">4</tspan><tspan x="-41.617615" y="-297.22513"/></text>
    <text x="-29.0618" y="-318.47443" stroke-width=".47" style="paint-order:stroke fill markers" xml:space="preserve"><tspan x="-29.0618" y="-318.47443" fill="#cef932" stroke-width=".47">5</tspan></text>
    <text x="-17.562664" y="-318.39175" stroke-width=".47" style="paint-order:stroke fill markers" xml:space="preserve"><tspan x="-17.562664" y="-318.39175" fill="#cef932" stroke-width=".47">6</tspan></text>
    <text x="-5.3251677" y="-318.39175" stroke-width=".47" style="paint-order:stroke fill markers" xml:space="preserve"><tspan x="-5.3251677" y="-318.39175" fill="#cef932" stroke-width=".47">7</tspan></text>
    <text x="7.2586455" y="-318.39175" stroke-width=".47" style="paint-order:stroke fill markers" xml:space="preserve"><tspan x="7.2586455" y="-318.39175" fill="#cef932" stroke-width=".47">8</tspan></text>
    <text x="18.688026" y="-318.39175" stroke-width=".47" style="paint-order:stroke fill markers" xml:space="preserve"><tspan x="18.688026" y="-318.39175" fill="#cef932" stroke-width=".47">9</tspan></text>
    <text x="30.117392" y="-318.39175" stroke-width=".47" style="paint-order:stroke fill markers" xml:space="preserve"><tspan x="30.117392" y="-318.39175" fill="#cef932" stroke-width=".47">X</tspan></text>
    <text x="42.239441" y="-318.39175" stroke-width=".47" style="paint-order:stroke fill markers" xml:space="preserve"><tspan x="42.239441" y="-318.39175" fill="#cef932" stroke-width=".47">Y</tspan></text>
   </g>
   <text x="126.91237" y="-334.10608" stroke-width=".47" style="paint-order:stroke fill markers" xml:space="preserve"><tspan x="126.91237" y="-334.10608" fill="#cef932" stroke-width=".47">0</tspan></text>
   <text x="140.48393" y="-334.10608" stroke-width=".47" style="paint-order:stroke fill markers" xml:space="preserve"><tspan x="140.48393" y="-334.10608" fill="#cef932" stroke-width=".47">1</tspan></text>
   <text x="150.83295" y="-334.00687" stroke-width=".47" style="paint-order:stroke fill markers" xml:space="preserve"><tspan x="150.83295" y="-334.00687" fill="#cef932" stroke-width=".47">2</tspan></text>
   <text x="162.77994" y="-334.10608" stroke-width=".47" style="paint-order:stroke fill markers" xml:space="preserve"><tspan x="162.77994" y="-334.10608" fill="#cef932" stroke-width=".47">3</tspan></text>
   <text x="174.65082" y="-334.10608" stroke-width=".47" style="paint-order:stroke fill markers" xml:space="preserve"><tspan x="174.65082" y="-334.10608">4</tspan><tspan x="174.65082" y="-312.93945"/></text>
   <text x="187.20663" y="-334.18875" stroke-width=".47" style="paint-order:stroke fill markers" xml:space="preserve"><tspan x="187.20663" y="-334.18875" fill="#cef932" stroke-width=".47">5</tspan></text>
   <text x="198.866" y="-334.10608" stroke-width=".47" style="paint-order:stroke fill markers" xml:space="preserve"><tspan x="198.866" y="-334.10608" fill="#cef932" stroke-width=".47">6</tspan></text>
   <text x="210.478" y="-334.10608" stroke-width=".47" style="paint-order:stroke fill markers" xml:space="preserve"><tspan x="210.478" y="-334.10608" fill="#cef932" stroke-width=".47">7</tspan></text>
   <text x="222.36076" y="-334.10608" stroke-width=".47" style="paint-order:stroke fill markers" xml:space="preserve"><tspan x="222.36076" y="-334.10608" fill="#cef932" stroke-width=".47">8</tspan></text>
   <text x="-197.02591" y="-334.10608" stroke-width=".47" style="paint-order:stroke fill markers" xml:space="preserve"><tspan x="-197.02591" y="-334.10608" fill="#cef932" stroke-width=".47">9</tspan></text>
   <text x="-185.65829" y="-334.10608" stroke-width=".47" style="paint-order:stroke fill markers" xml:space="preserve"><tspan x="-185.65829" y="-334.10608" fill="#cef932" stroke-width=".47">X</tspan></text>
   <text x="-173.53625" y="-334.10608" stroke-width=".47" style="paint-order:stroke fill markers" xml:space="preserve"><tspan x="-173.53625" y="-334.10608" fill="#cef932" stroke-width=".47">Y</tspan></text>
  </g>
  <g fill="#e96e40" font-family="inter" font-size="16.933px" stroke="#f3f3f0">
   <text x="-197.17474" y="-318.64169" stroke-width=".47" style="paint-order:stroke fill markers" xml:space="preserve"><tspan x="-197.17474" y="-318.64169" stroke-width=".47">3</tspan></text>
   <text x="-185.30385" y="-318.64169" stroke-width=".47" style="paint-order:stroke fill markers" xml:space="preserve"><tspan x="-185.30385" y="-318.64169">4</tspan><tspan x="-185.30385" y="-297.47507"/></text>
   <text x="-172.74803" y="-318.72437" stroke-width=".47" style="paint-order:stroke fill markers" xml:space="preserve"><tspan x="-172.74803" y="-318.72437" stroke-width=".47">5</tspan></text>
   <text x="-161.2489" y="-318.64169" stroke-width=".47" style="paint-order:stroke fill markers" xml:space="preserve"><tspan x="-161.2489" y="-318.64169" stroke-width=".47">6</tspan></text>
   <text x="-149.0114" y="-318.64169" stroke-width=".47" style="paint-order:stroke fill markers" xml:space="preserve"><tspan x="-149.0114" y="-318.64169" stroke-width=".47">7</tspan></text>
   <text x="-136.42758" y="-318.64169" stroke-width=".47" style="paint-order:stroke fill markers" xml:space="preserve"><tspan x="-136.42758" y="-318.64169" stroke-width=".47">8</tspan></text>
   <text x="-124.99821" y="-318.64169" stroke-width=".47" style="paint-order:stroke fill markers" xml:space="preserve"><tspan x="-124.99821" y="-318.64169" stroke-width=".47">9</tspan></text>
   <text x="-113.56884" y="-318.64169" stroke-width=".47" style="paint-order:stroke fill markers" xml:space="preserve"><tspan x="-113.56884" y="-318.64169" stroke-width=".47">X</tspan></text>
   <text x="-101.44679" y="-318.64169" stroke-width=".47" style="paint-order:stroke fill markers" xml:space="preserve"><tspan x="-101.44679" y="-318.64169" stroke-width=".47">Y</tspan></text>
  </g>
  <g transform="translate(144.29 -.24994)" fill="#e96e40" font-family="inter" font-size="16.933px" stroke="#f3f3f0">
   <text x="-89.356071" y="-318.39175" stroke-width=".47" style="paint-order:stroke fill markers" xml:space="preserve"><tspan x="-89.356071" y="-318.39175" stroke-width=".47">0</tspan></text>
   <text x="-75.7845" y="-318.39175" stroke-width=".47" style="paint-order:stroke fill markers" xml:space="preserve"><tspan x="-75.7845" y="-318.39175" stroke-width=".47">1</tspan></text>
   <text x="-65.435486" y="-318.29254" stroke-width=".47" style="paint-order:stroke fill markers" xml:space="preserve"><tspan x="-65.435486" y="-318.29254" stroke-width=".47">2</tspan></text>
   <text x="-53.488506" y="-318.39175" stroke-width=".47" style="paint-order:stroke fill markers" xml:space="preserve"><tspan x="-53.488506" y="-318.39175" stroke-width=".47">3</tspan></text>
   <text x="-41.617615" y="-318.39175" stroke-width=".47" style="paint-order:stroke fill markers" xml:space="preserve"><tspan x="-41.617615" y="-318.39175">4</tspan><tspan x="-41.617615" y="-297.22513"/></text>
   <text x="-29.0618" y="-318.47443" stroke-width=".47" style="paint-order:stroke fill markers" xml:space="preserve"><tspan x="-29.0618" y="-318.47443" stroke-width=".47">5</tspan></text>
   <text x="-17.562664" y="-318.39175" stroke-width=".47" style="paint-order:stroke fill markers" xml:space="preserve"><tspan x="-17.562664" y="-318.39175" stroke-width=".47">6</tspan></text>
   <text x="-5.3251677" y="-318.39175" stroke-width=".47" style="paint-order:stroke fill markers" xml:space="preserve"><tspan x="-5.3251677" y="-318.39175" stroke-width=".47">7</tspan></text>
   <text x="7.2586455" y="-318.39175" stroke-width=".47" style="paint-order:stroke fill markers" xml:space="preserve"><tspan x="7.2586455" y="-318.39175" stroke-width=".47">8</tspan></text>
   <text x="18.688026" y="-318.39175" stroke-width=".47" style="paint-order:stroke fill markers" xml:space="preserve"><tspan x="18.688026" y="-318.39175" stroke-width=".47">9</tspan></text>
   <text x="30.117392" y="-318.39175" stroke-width=".47" style="paint-order:stroke fill markers" xml:space="preserve"><tspan x="30.117392" y="-318.39175" stroke-width=".47">X</tspan></text>
   <text x="42.239441" y="-318.39175" stroke-width=".47" style="paint-order:stroke fill markers" xml:space="preserve"><tspan x="42.239441" y="-318.39175" stroke-width=".47">Y</tspan></text>
  </g>
  <g fill="#e96e40" font-family="inter" font-size="16.933px" stroke="#f3f3f0" stroke-width=".47">
   <text x="198.61795" y="-318.64169" style="paint-order:stroke fill markers" xml:space="preserve"><tspan x="198.61795" y="-318.64169" stroke-width=".47">0</tspan></text>
   <text x="212.18951" y="-318.64169" style="paint-order:stroke fill markers" xml:space="preserve"><tspan x="212.18951" y="-318.64169" stroke-width=".47">1</tspan></text>
   <text x="222.53853" y="-318.54248" style="paint-order:stroke fill markers" xml:space="preserve"><tspan x="222.53853" y="-318.54248" stroke-width=".47">2</tspan></text>
  </g>
 </g>
</svg>
