<?xml version="1.0" encoding="UTF-8"?>
<!-- Created with Inkscape (http://www.inkscape.org/) -->
<svg width="1071mm" height="115.77mm" version="1.1" viewBox="0 0 1071 115.77" xmlns="http://www.w3.org/2000/svg">
 <g transform="translate(683.18 201.04)">
  <g transform="translate(-32.719 -362.69)">
   <g transform="translate(-346.58 274.91)" fill="none" stroke="#000" stroke-linecap="round" stroke-linejoin="round">
    <g stroke-width=".9758">
     <path d="m-262.12-112.75c-0.0519 0.32939-0.0786 0.6674-0.0786 1.0118v107.23c0 3.5446 2.8535 6.3986 6.3981 6.3986h6.2435c3.5446 0 6.3981-2.854 6.3981-6.3986v-36.325c-0.49335 0.16657-1.0155 0.2558-1.5565 0.2558-3.0586 0-5.5211-2.8532-5.5211-6.397v-65.248c0-0.17697 6e-3 -0.35229 0.0186-0.52555z"/>
     <path d="m-239.22-112.75c0.0112 0.16618 0.0165 0.33427 0.0165 0.50385v65.248c0 2.4835-1.2091 4.6277-2.9854 5.6885v36.799c0 3.5446 2.8535 6.3986 6.3981 6.3986h6.2436c3.5446 0 6.398-2.854 6.398-6.3986v-36.715c-1.8348-1.0376-3.0928-3.2179-3.0928-5.7511v-65.248c0-0.17701 6e-3 -0.35225 0.0181-0.52555z"/>
     <path d="m-215.16-112.75c8e-3 0.14257 0.0119 0.28649 0.0119 0.4315v65.248c0 3.5439-2.462 6.397-5.5206 6.397-0.52013 0-1.0227-0.0823-1.4991-0.23667v36.4c0 3.5446 2.8535 6.3986 6.398 6.3986h6.2436c3.5446 0 6.3981-2.854 6.3981-6.3986v-107.23c0-0.34442-0.0271-0.68243-0.0791-1.0118z"/>
    </g>
    <g stroke-width=".99956">
     <path d="m-155.11-112.74c0.011 0.165 0.0165 0.33189 0.0165 0.50023v65.248c0 3.3436-2.192 6.0725-5.0085 6.3702v36.099c0 3.5438 2.9948 6.397 6.7148 6.397h6.5526c3.72 0 6.7148-2.8532 6.7148-6.397v-37.515c-1.228-1.1714-2.0087-2.9477-2.0087-4.9428v-65.248c0-0.17225 6e-3 -0.34286 0.0176-0.5116z"/>
     <path d="m-179.11-112.74c0.0118 0.17094 0.0176 0.34377 0.0176 0.51831v65.248c0 1.9992-0.78371 3.7787-2.0159 4.9501v37.501c0 3.5438 2.9948 6.397 6.7148 6.397h6.5526c3.72 0 6.7143-2.8532 6.7143-6.397v-36.086c-2.8166-0.29765-5.0085-3.0265-5.0085-6.3702v-65.248c0-0.17293 6e-3 -0.34427 0.0176-0.51366z"/>
     <path d="m-202.03-112.74c-0.0545 0.32932-0.0827 0.66748-0.0827 1.0118v107.21c0 3.5438 2.9948 6.397 6.7148 6.397h6.5526c3.72 0 6.7148-2.8532 6.7148-6.397v-36.735c-0.74525 0.43319-1.5879 0.67644-2.4815 0.67644-3.0586 0-5.5211-2.8532-5.5211-6.397v-65.248c0-0.17293 6e-3 -0.34427 0.0176-0.51366z"/>
     <path d="m-131.11-112.74c0.0116 0.16939 0.0171 0.34073 0.0171 0.51366v65.248c0 3.5439-2.4621 6.397-5.5206 6.397-0.8938 0-1.7366-0.24362-2.482-0.67696v36.736c0 3.5438 2.9943 6.397 6.7143 6.397h6.5526c3.72 0 6.7148-2.8532 6.7148-6.397v-107.21c0-0.34434-0.0281-0.6825-0.0827-1.0118z"/>
    </g>
    <g stroke-width=".95832">
     <path d="m-142.1-112.56c-0.0125 0.1761-0.0191 0.35438-0.0191 0.53433v65.248c0 3.5439 2.4626 6.397 5.5211 6.397 3.0585 0 5.5206-2.8532 5.5206-6.397v-65.248c0-0.17995-6e-3 -0.35823-0.0186-0.53433z"/>
     <path d="m-250.29-112.76c-0.0125 0.1761-0.0191 0.35438-0.0191 0.53433v65.248c0 3.5439 2.4626 6.397 5.5211 6.397 3.0585 0 5.5206-2.8532 5.5206-6.397v-65.248c0-0.17995-6e-3 -0.35823-0.0186-0.53433z"/>
     <path d="m-226.19-112.79c-0.0125 0.1761-0.0191 0.35438-0.0191 0.53433v65.248c0 3.5439 2.4626 6.397 5.5211 6.397 3.0585 0 5.5206-2.8532 5.5206-6.397v-65.248c0-0.17995-6e-3 -0.35823-0.0186-0.53433z"/>
     <path d="m-190.12-112.75c-0.0125 0.1761-0.0191 0.35438-0.0191 0.53433v65.248c0 3.5439 2.4626 6.397 5.5211 6.397 3.0585 0 5.5206-2.8532 5.5206-6.397v-65.248c0-0.17995-6e-3 -0.35823-0.0186-0.53433z"/>
     <path d="m-166.1-112.78c-0.0125 0.1761-0.0191 0.35438-0.0191 0.53433v65.248c0 3.5439 2.4626 6.397 5.5211 6.397 3.0585 0 5.5206-2.8532 5.5206-6.397v-65.248c0-0.17995-6e-3 -0.35823-0.0186-0.53433z"/>
    </g>
   </g>
   <g transform="translate(45.813 .01292)">
    <path d="m355.32 162.13c-0.0519 0.32939-0.0786 0.6674-0.0786 1.0118v107.23c0 3.5446 2.8535 6.3986 6.3981 6.3986h6.2435c3.5446 0 6.3981-2.854 6.3981-6.3986v-36.325c-0.49335 0.16657-1.0155 0.2558-1.5565 0.2558-3.0586 0-5.5211-2.8532-5.5211-6.397v-65.248c0-0.17697 6e-3 -0.35229 0.0186-0.52555z" fill="none" stroke="#000" stroke-linecap="round" stroke-linejoin="round" stroke-width=".9758"/>
   </g>
   <g transform="translate(52.106 -1.373)" fill="none" stroke="#000" stroke-linecap="round" stroke-linejoin="round">
    <path d="m-697.07 163.67c0.011 0.165 0.0165 0.33189 0.0165 0.50023v65.248c0 3.3436-2.192 6.0725-5.0085 6.3702v36.099c0 3.5438 2.9948 6.397 6.7148 6.397h6.5526c3.72 0 6.7148-2.8532 6.7148-6.397v-37.515c-1.228-1.1714-2.0087-2.9477-2.0087-4.9428v-65.248c0-0.17225 6e-3 -0.34286 0.0176-0.5116z" stroke-width=".99956"/>
    <path d="m-673.07 163.67c0.0116 0.16939 0.0171 0.34073 0.0171 0.51366v65.248c0 3.5439-2.4621 6.397-5.5206 6.397-0.8938 0-1.7366-0.24362-2.482-0.67696v36.736c0 3.5438 2.9943 6.397 6.7143 6.397h6.5526c3.72 0 6.7148-2.8532 6.7148-6.397v-107.21c0-0.34434-0.0281-0.6825-0.0827-1.0118z" stroke-width=".99956"/>
    <path d="m-684.06 163.86c-0.0125 0.1761-0.0191 0.35438-0.0191 0.53433v65.248c0 3.5439 2.4626 6.397 5.5211 6.397 3.0585 0 5.5206-2.8532 5.5206-6.397v-65.248c0-0.17995-6e-3 -0.35823-0.0186-0.53433z" stroke-width=".95832"/>
   </g>
   <g transform="translate(-202.25 274.91)" fill="none" stroke="#000" stroke-linecap="round" stroke-linejoin="round">
    <g stroke-width=".9758">
     <path d="m-262.12-112.75c-0.0519 0.32939-0.0786 0.6674-0.0786 1.0118v107.23c0 3.5446 2.8535 6.3986 6.3981 6.3986h6.2435c3.5446 0 6.3981-2.854 6.3981-6.3986v-36.325c-0.49335 0.16657-1.0155 0.2558-1.5565 0.2558-3.0586 0-5.5211-2.8532-5.5211-6.397v-65.248c0-0.17697 6e-3 -0.35229 0.0186-0.52555z"/>
     <path d="m-239.22-112.75c0.0112 0.16618 0.0165 0.33427 0.0165 0.50385v65.248c0 2.4835-1.2091 4.6277-2.9854 5.6885v36.799c0 3.5446 2.8535 6.3986 6.3981 6.3986h6.2436c3.5446 0 6.398-2.854 6.398-6.3986v-36.715c-1.8348-1.0376-3.0928-3.2179-3.0928-5.7511v-65.248c0-0.17701 6e-3 -0.35225 0.0181-0.52555z"/>
     <path d="m-215.16-112.75c8e-3 0.14257 0.0119 0.28649 0.0119 0.4315v65.248c0 3.5439-2.462 6.397-5.5206 6.397-0.52013 0-1.0227-0.0823-1.4991-0.23667v36.4c0 3.5446 2.8535 6.3986 6.398 6.3986h6.2436c3.5446 0 6.3981-2.854 6.3981-6.3986v-107.23c0-0.34442-0.0271-0.68243-0.0791-1.0118z"/>
    </g>
    <g stroke-width=".99956">
     <path d="m-155.11-112.74c0.011 0.165 0.0165 0.33189 0.0165 0.50023v65.248c0 3.3436-2.192 6.0725-5.0085 6.3702v36.099c0 3.5438 2.9948 6.397 6.7148 6.397h6.5526c3.72 0 6.7148-2.8532 6.7148-6.397v-37.515c-1.228-1.1714-2.0087-2.9477-2.0087-4.9428v-65.248c0-0.17225 6e-3 -0.34286 0.0176-0.5116z"/>
     <path d="m-179.11-112.74c0.0118 0.17094 0.0176 0.34377 0.0176 0.51831v65.248c0 1.9992-0.78371 3.7787-2.0159 4.9501v37.501c0 3.5438 2.9948 6.397 6.7148 6.397h6.5526c3.72 0 6.7143-2.8532 6.7143-6.397v-36.086c-2.8166-0.29765-5.0085-3.0265-5.0085-6.3702v-65.248c0-0.17293 6e-3 -0.34427 0.0176-0.51366z"/>
     <path d="m-202.03-112.74c-0.0545 0.32932-0.0827 0.66748-0.0827 1.0118v107.21c0 3.5438 2.9948 6.397 6.7148 6.397h6.5526c3.72 0 6.7148-2.8532 6.7148-6.397v-36.735c-0.74525 0.43319-1.5879 0.67644-2.4815 0.67644-3.0586 0-5.5211-2.8532-5.5211-6.397v-65.248c0-0.17293 6e-3 -0.34427 0.0176-0.51366z"/>
     <path d="m-131.11-112.74c0.0116 0.16939 0.0171 0.34073 0.0171 0.51366v65.248c0 3.5439-2.4621 6.397-5.5206 6.397-0.8938 0-1.7366-0.24362-2.482-0.67696v36.736c0 3.5438 2.9943 6.397 6.7143 6.397h6.5526c3.72 0 6.7148-2.8532 6.7148-6.397v-107.21c0-0.34434-0.0281-0.6825-0.0827-1.0118z"/>
    </g>
    <g stroke-width=".95832">
     <path d="m-142.1-112.56c-0.0125 0.1761-0.0191 0.35438-0.0191 0.53433v65.248c0 3.5439 2.4626 6.397 5.5211 6.397 3.0585 0 5.5206-2.8532 5.5206-6.397v-65.248c0-0.17995-6e-3 -0.35823-0.0186-0.53433z"/>
     <path d="m-250.29-112.76c-0.0125 0.1761-0.0191 0.35438-0.0191 0.53433v65.248c0 3.5439 2.4626 6.397 5.5211 6.397 3.0585 0 5.5206-2.8532 5.5206-6.397v-65.248c0-0.17995-6e-3 -0.35823-0.0186-0.53433z"/>
     <path d="m-226.19-112.79c-0.0125 0.1761-0.0191 0.35438-0.0191 0.53433v65.248c0 3.5439 2.4626 6.397 5.5211 6.397 3.0585 0 5.5206-2.8532 5.5206-6.397v-65.248c0-0.17995-6e-3 -0.35823-0.0186-0.53433z"/>
     <path d="m-190.12-112.75c-0.0125 0.1761-0.0191 0.35438-0.0191 0.53433v65.248c0 3.5439 2.4626 6.397 5.5211 6.397 3.0585 0 5.5206-2.8532 5.5206-6.397v-65.248c0-0.17995-6e-3 -0.35823-0.0186-0.53433z"/>
     <path d="m-166.1-112.78c-0.0125 0.1761-0.0191 0.35438-0.0191 0.53433v65.248c0 3.5439 2.4626 6.397 5.5211 6.397 3.0585 0 5.5206-2.8532 5.5206-6.397v-65.248c0-0.17995-6e-3 -0.35823-0.0186-0.53433z"/>
    </g>
   </g>
   <g transform="translate(-57.911 274.91)" fill="none" stroke="#000" stroke-linecap="round" stroke-linejoin="round">
    <g stroke-width=".9758">
     <path d="m-262.12-112.75c-0.0519 0.32939-0.0786 0.6674-0.0786 1.0118v107.23c0 3.5446 2.8535 6.3986 6.3981 6.3986h6.2435c3.5446 0 6.3981-2.854 6.3981-6.3986v-36.325c-0.49335 0.16657-1.0155 0.2558-1.5565 0.2558-3.0586 0-5.5211-2.8532-5.5211-6.397v-65.248c0-0.17697 6e-3 -0.35229 0.0186-0.52555z"/>
     <path d="m-239.22-112.75c0.0112 0.16618 0.0165 0.33427 0.0165 0.50385v65.248c0 2.4835-1.2091 4.6277-2.9854 5.6885v36.799c0 3.5446 2.8535 6.3986 6.3981 6.3986h6.2436c3.5446 0 6.398-2.854 6.398-6.3986v-36.715c-1.8348-1.0376-3.0928-3.2179-3.0928-5.7511v-65.248c0-0.17701 6e-3 -0.35225 0.0181-0.52555z"/>
     <path d="m-215.16-112.75c8e-3 0.14257 0.0119 0.28649 0.0119 0.4315v65.248c0 3.5439-2.462 6.397-5.5206 6.397-0.52013 0-1.0227-0.0823-1.4991-0.23667v36.4c0 3.5446 2.8535 6.3986 6.398 6.3986h6.2436c3.5446 0 6.3981-2.854 6.3981-6.3986v-107.23c0-0.34442-0.0271-0.68243-0.0791-1.0118z"/>
    </g>
    <g stroke-width=".99956">
     <path d="m-155.11-112.74c0.011 0.165 0.0165 0.33189 0.0165 0.50023v65.248c0 3.3436-2.192 6.0725-5.0085 6.3702v36.099c0 3.5438 2.9948 6.397 6.7148 6.397h6.5526c3.72 0 6.7148-2.8532 6.7148-6.397v-37.515c-1.228-1.1714-2.0087-2.9477-2.0087-4.9428v-65.248c0-0.17225 6e-3 -0.34286 0.0176-0.5116z"/>
     <path d="m-179.11-112.74c0.0118 0.17094 0.0176 0.34377 0.0176 0.51831v65.248c0 1.9992-0.78371 3.7787-2.0159 4.9501v37.501c0 3.5438 2.9948 6.397 6.7148 6.397h6.5526c3.72 0 6.7143-2.8532 6.7143-6.397v-36.086c-2.8166-0.29765-5.0085-3.0265-5.0085-6.3702v-65.248c0-0.17293 6e-3 -0.34427 0.0176-0.51366z"/>
     <path d="m-202.03-112.74c-0.0545 0.32932-0.0827 0.66748-0.0827 1.0118v107.21c0 3.5438 2.9948 6.397 6.7148 6.397h6.5526c3.72 0 6.7148-2.8532 6.7148-6.397v-36.735c-0.74525 0.43319-1.5879 0.67644-2.4815 0.67644-3.0586 0-5.5211-2.8532-5.5211-6.397v-65.248c0-0.17293 6e-3 -0.34427 0.0176-0.51366z"/>
     <path d="m-131.11-112.74c0.0116 0.16939 0.0171 0.34073 0.0171 0.51366v65.248c0 3.5439-2.4621 6.397-5.5206 6.397-0.8938 0-1.7366-0.24362-2.482-0.67696v36.736c0 3.5438 2.9943 6.397 6.7143 6.397h6.5526c3.72 0 6.7148-2.8532 6.7148-6.397v-107.21c0-0.34434-0.0281-0.6825-0.0827-1.0118z"/>
    </g>
    <g stroke-width=".95832">
     <path d="m-142.1-112.56c-0.0125 0.1761-0.0191 0.35438-0.0191 0.53433v65.248c0 3.5439 2.4626 6.397 5.5211 6.397 3.0585 0 5.5206-2.8532 5.5206-6.397v-65.248c0-0.17995-6e-3 -0.35823-0.0186-0.53433z"/>
     <path d="m-250.29-112.76c-0.0125 0.1761-0.0191 0.35438-0.0191 0.53433v65.248c0 3.5439 2.4626 6.397 5.5211 6.397 3.0585 0 5.5206-2.8532 5.5206-6.397v-65.248c0-0.17995-6e-3 -0.35823-0.0186-0.53433z"/>
     <path d="m-226.19-112.79c-0.0125 0.1761-0.0191 0.35438-0.0191 0.53433v65.248c0 3.5439 2.4626 6.397 5.5211 6.397 3.0585 0 5.5206-2.8532 5.5206-6.397v-65.248c0-0.17995-6e-3 -0.35823-0.0186-0.53433z"/>
     <path d="m-190.12-112.75c-0.0125 0.1761-0.0191 0.35438-0.0191 0.53433v65.248c0 3.5439 2.4626 6.397 5.5211 6.397 3.0585 0 5.5206-2.8532 5.5206-6.397v-65.248c0-0.17995-6e-3 -0.35823-0.0186-0.53433z"/>
     <path d="m-166.1-112.78c-0.0125 0.1761-0.0191 0.35438-0.0191 0.53433v65.248c0 3.5439 2.4626 6.397 5.5211 6.397 3.0585 0 5.5206-2.8532 5.5206-6.397v-65.248c0-0.17995-6e-3 -0.35823-0.0186-0.53433z"/>
    </g>
   </g>
   <g transform="translate(230.76 274.91)" fill="none" stroke="#000" stroke-linecap="round" stroke-linejoin="round">
    <g stroke-width=".9758">
     <path d="m-262.12-112.75c-0.0519 0.32939-0.0786 0.6674-0.0786 1.0118v107.23c0 3.5446 2.8535 6.3986 6.3981 6.3986h6.2435c3.5446 0 6.3981-2.854 6.3981-6.3986v-36.325c-0.49335 0.16657-1.0155 0.2558-1.5565 0.2558-3.0586 0-5.5211-2.8532-5.5211-6.397v-65.248c0-0.17697 6e-3 -0.35229 0.0186-0.52555z"/>
     <path d="m-239.22-112.75c0.0112 0.16618 0.0165 0.33427 0.0165 0.50385v65.248c0 2.4835-1.2091 4.6277-2.9854 5.6885v36.799c0 3.5446 2.8535 6.3986 6.3981 6.3986h6.2436c3.5446 0 6.398-2.854 6.398-6.3986v-36.715c-1.8348-1.0376-3.0928-3.2179-3.0928-5.7511v-65.248c0-0.17701 6e-3 -0.35225 0.0181-0.52555z"/>
     <path d="m-215.16-112.75c8e-3 0.14257 0.0119 0.28649 0.0119 0.4315v65.248c0 3.5439-2.462 6.397-5.5206 6.397-0.52013 0-1.0227-0.0823-1.4991-0.23667v36.4c0 3.5446 2.8535 6.3986 6.398 6.3986h6.2436c3.5446 0 6.3981-2.854 6.3981-6.3986v-107.23c0-0.34442-0.0271-0.68243-0.0791-1.0118z"/>
    </g>
    <g stroke-width=".99956">
     <path d="m-155.11-112.74c0.011 0.165 0.0165 0.33189 0.0165 0.50023v65.248c0 3.3436-2.192 6.0725-5.0085 6.3702v36.099c0 3.5438 2.9948 6.397 6.7148 6.397h6.5526c3.72 0 6.7148-2.8532 6.7148-6.397v-37.515c-1.228-1.1714-2.0087-2.9477-2.0087-4.9428v-65.248c0-0.17225 6e-3 -0.34286 0.0176-0.5116z"/>
     <path d="m-179.11-112.74c0.0118 0.17094 0.0176 0.34377 0.0176 0.51831v65.248c0 1.9992-0.78371 3.7787-2.0159 4.9501v37.501c0 3.5438 2.9948 6.397 6.7148 6.397h6.5526c3.72 0 6.7143-2.8532 6.7143-6.397v-36.086c-2.8166-0.29765-5.0085-3.0265-5.0085-6.3702v-65.248c0-0.17293 6e-3 -0.34427 0.0176-0.51366z"/>
     <path d="m-202.03-112.74c-0.0545 0.32932-0.0827 0.66748-0.0827 1.0118v107.21c0 3.5438 2.9948 6.397 6.7148 6.397h6.5526c3.72 0 6.7148-2.8532 6.7148-6.397v-36.735c-0.74525 0.43319-1.5879 0.67644-2.4815 0.67644-3.0586 0-5.5211-2.8532-5.5211-6.397v-65.248c0-0.17293 6e-3 -0.34427 0.0176-0.51366z"/>
     <path d="m-131.11-112.74c0.0116 0.16939 0.0171 0.34073 0.0171 0.51366v65.248c0 3.5439-2.4621 6.397-5.5206 6.397-0.8938 0-1.7366-0.24362-2.482-0.67696v36.736c0 3.5438 2.9943 6.397 6.7143 6.397h6.5526c3.72 0 6.7148-2.8532 6.7148-6.397v-107.21c0-0.34434-0.0281-0.6825-0.0827-1.0118z"/>
    </g>
    <g stroke-width=".95832">
     <path d="m-142.1-112.56c-0.0125 0.1761-0.0191 0.35438-0.0191 0.53433v65.248c0 3.5439 2.4626 6.397 5.5211 6.397 3.0585 0 5.5206-2.8532 5.5206-6.397v-65.248c0-0.17995-6e-3 -0.35823-0.0186-0.53433z"/>
     <path d="m-250.29-112.76c-0.0125 0.1761-0.0191 0.35438-0.0191 0.53433v65.248c0 3.5439 2.4626 6.397 5.5211 6.397 3.0585 0 5.5206-2.8532 5.5206-6.397v-65.248c0-0.17995-6e-3 -0.35823-0.0186-0.53433z"/>
     <path d="m-226.19-112.79c-0.0125 0.1761-0.0191 0.35438-0.0191 0.53433v65.248c0 3.5439 2.4626 6.397 5.5211 6.397 3.0585 0 5.5206-2.8532 5.5206-6.397v-65.248c0-0.17995-6e-3 -0.35823-0.0186-0.53433z"/>
     <path d="m-190.12-112.75c-0.0125 0.1761-0.0191 0.35438-0.0191 0.53433v65.248c0 3.5439 2.4626 6.397 5.5211 6.397 3.0585 0 5.5206-2.8532 5.5206-6.397v-65.248c0-0.17995-6e-3 -0.35823-0.0186-0.53433z"/>
     <path d="m-166.1-112.78c-0.0125 0.1761-0.0191 0.35438-0.0191 0.53433v65.248c0 3.5439 2.4626 6.397 5.5211 6.397 3.0585 0 5.5206-2.8532 5.5206-6.397v-65.248c0-0.17995-6e-3 -0.35823-0.0186-0.53433z"/>
    </g>
   </g>
   <g transform="translate(375.1 274.91)" fill="none" stroke="#000" stroke-linecap="round" stroke-linejoin="round">
    <g stroke-width=".9758">
     <path d="m-262.12-112.75c-0.0519 0.32939-0.0786 0.6674-0.0786 1.0118v107.23c0 3.5446 2.8535 6.3986 6.3981 6.3986h6.2435c3.5446 0 6.3981-2.854 6.3981-6.3986v-36.325c-0.49335 0.16657-1.0155 0.2558-1.5565 0.2558-3.0586 0-5.5211-2.8532-5.5211-6.397v-65.248c0-0.17697 6e-3 -0.35229 0.0186-0.52555z"/>
     <path d="m-239.22-112.75c0.0112 0.16618 0.0165 0.33427 0.0165 0.50385v65.248c0 2.4835-1.2091 4.6277-2.9854 5.6885v36.799c0 3.5446 2.8535 6.3986 6.3981 6.3986h6.2436c3.5446 0 6.398-2.854 6.398-6.3986v-36.715c-1.8348-1.0376-3.0928-3.2179-3.0928-5.7511v-65.248c0-0.17701 6e-3 -0.35225 0.0181-0.52555z"/>
     <path d="m-215.16-112.75c8e-3 0.14257 0.0119 0.28649 0.0119 0.4315v65.248c0 3.5439-2.462 6.397-5.5206 6.397-0.52013 0-1.0227-0.0823-1.4991-0.23667v36.4c0 3.5446 2.8535 6.3986 6.398 6.3986h6.2436c3.5446 0 6.3981-2.854 6.3981-6.3986v-107.23c0-0.34442-0.0271-0.68243-0.0791-1.0118z"/>
    </g>
    <g stroke-width=".99956">
     <path d="m-155.11-112.74c0.011 0.165 0.0165 0.33189 0.0165 0.50023v65.248c0 3.3436-2.192 6.0725-5.0085 6.3702v36.099c0 3.5438 2.9948 6.397 6.7148 6.397h6.5526c3.72 0 6.7148-2.8532 6.7148-6.397v-37.515c-1.228-1.1714-2.0087-2.9477-2.0087-4.9428v-65.248c0-0.17225 6e-3 -0.34286 0.0176-0.5116z"/>
     <path d="m-179.11-112.74c0.0118 0.17094 0.0176 0.34377 0.0176 0.51831v65.248c0 1.9992-0.78371 3.7787-2.0159 4.9501v37.501c0 3.5438 2.9948 6.397 6.7148 6.397h6.5526c3.72 0 6.7143-2.8532 6.7143-6.397v-36.086c-2.8166-0.29765-5.0085-3.0265-5.0085-6.3702v-65.248c0-0.17293 6e-3 -0.34427 0.0176-0.51366z"/>
     <path d="m-202.03-112.74c-0.0545 0.32932-0.0827 0.66748-0.0827 1.0118v107.21c0 3.5438 2.9948 6.397 6.7148 6.397h6.5526c3.72 0 6.7148-2.8532 6.7148-6.397v-36.735c-0.74525 0.43319-1.5879 0.67644-2.4815 0.67644-3.0586 0-5.5211-2.8532-5.5211-6.397v-65.248c0-0.17293 6e-3 -0.34427 0.0176-0.51366z"/>
     <path d="m-131.11-112.74c0.0116 0.16939 0.0171 0.34073 0.0171 0.51366v65.248c0 3.5439-2.4621 6.397-5.5206 6.397-0.8938 0-1.7366-0.24362-2.482-0.67696v36.736c0 3.5438 2.9943 6.397 6.7143 6.397h6.5526c3.72 0 6.7148-2.8532 6.7148-6.397v-107.21c0-0.34434-0.0281-0.6825-0.0827-1.0118z"/>
    </g>
    <g stroke-width=".95832">
     <path d="m-142.1-112.56c-0.0125 0.1761-0.0191 0.35438-0.0191 0.53433v65.248c0 3.5439 2.4626 6.397 5.5211 6.397 3.0585 0 5.5206-2.8532 5.5206-6.397v-65.248c0-0.17995-6e-3 -0.35823-0.0186-0.53433z"/>
     <path d="m-250.29-112.76c-0.0125 0.1761-0.0191 0.35438-0.0191 0.53433v65.248c0 3.5439 2.4626 6.397 5.5211 6.397 3.0585 0 5.5206-2.8532 5.5206-6.397v-65.248c0-0.17995-6e-3 -0.35823-0.0186-0.53433z"/>
     <path d="m-226.19-112.79c-0.0125 0.1761-0.0191 0.35438-0.0191 0.53433v65.248c0 3.5439 2.4626 6.397 5.5211 6.397 3.0585 0 5.5206-2.8532 5.5206-6.397v-65.248c0-0.17995-6e-3 -0.35823-0.0186-0.53433z"/>
     <path d="m-190.12-112.75c-0.0125 0.1761-0.0191 0.35438-0.0191 0.53433v65.248c0 3.5439 2.4626 6.397 5.5211 6.397 3.0585 0 5.5206-2.8532 5.5206-6.397v-65.248c0-0.17995-6e-3 -0.35823-0.0186-0.53433z"/>
     <path d="m-166.1-112.78c-0.0125 0.1761-0.0191 0.35438-0.0191 0.53433v65.248c0 3.5439 2.4626 6.397 5.5211 6.397 3.0585 0 5.5206-2.8532 5.5206-6.397v-65.248c0-0.17995-6e-3 -0.35823-0.0186-0.53433z"/>
    </g>
   </g>
   <g transform="translate(519.43 274.91)" fill="none" stroke="#000" stroke-linecap="round" stroke-linejoin="round">
    <g stroke-width=".9758">
     <path d="m-262.12-112.75c-0.0519 0.32939-0.0786 0.6674-0.0786 1.0118v107.23c0 3.5446 2.8535 6.3986 6.3981 6.3986h6.2435c3.5446 0 6.3981-2.854 6.3981-6.3986v-36.325c-0.49335 0.16657-1.0155 0.2558-1.5565 0.2558-3.0586 0-5.5211-2.8532-5.5211-6.397v-65.248c0-0.17697 6e-3 -0.35229 0.0186-0.52555z"/>
     <path d="m-239.22-112.75c0.0112 0.16618 0.0165 0.33427 0.0165 0.50385v65.248c0 2.4835-1.2091 4.6277-2.9854 5.6885v36.799c0 3.5446 2.8535 6.3986 6.3981 6.3986h6.2436c3.5446 0 6.398-2.854 6.398-6.3986v-36.715c-1.8348-1.0376-3.0928-3.2179-3.0928-5.7511v-65.248c0-0.17701 6e-3 -0.35225 0.0181-0.52555z"/>
     <path d="m-215.16-112.75c8e-3 0.14257 0.0119 0.28649 0.0119 0.4315v65.248c0 3.5439-2.462 6.397-5.5206 6.397-0.52013 0-1.0227-0.0823-1.4991-0.23667v36.4c0 3.5446 2.8535 6.3986 6.398 6.3986h6.2436c3.5446 0 6.3981-2.854 6.3981-6.3986v-107.23c0-0.34442-0.0271-0.68243-0.0791-1.0118z"/>
    </g>
    <g stroke-width=".99956">
     <path d="m-155.11-112.74c0.011 0.165 0.0165 0.33189 0.0165 0.50023v65.248c0 3.3436-2.192 6.0725-5.0085 6.3702v36.099c0 3.5438 2.9948 6.397 6.7148 6.397h6.5526c3.72 0 6.7148-2.8532 6.7148-6.397v-37.515c-1.228-1.1714-2.0087-2.9477-2.0087-4.9428v-65.248c0-0.17225 6e-3 -0.34286 0.0176-0.5116z"/>
     <path d="m-179.11-112.74c0.0118 0.17094 0.0176 0.34377 0.0176 0.51831v65.248c0 1.9992-0.78371 3.7787-2.0159 4.9501v37.501c0 3.5438 2.9948 6.397 6.7148 6.397h6.5526c3.72 0 6.7143-2.8532 6.7143-6.397v-36.086c-2.8166-0.29765-5.0085-3.0265-5.0085-6.3702v-65.248c0-0.17293 6e-3 -0.34427 0.0176-0.51366z"/>
     <path d="m-202.03-112.74c-0.0545 0.32932-0.0827 0.66748-0.0827 1.0118v107.21c0 3.5438 2.9948 6.397 6.7148 6.397h6.5526c3.72 0 6.7148-2.8532 6.7148-6.397v-36.735c-0.74525 0.43319-1.5879 0.67644-2.4815 0.67644-3.0586 0-5.5211-2.8532-5.5211-6.397v-65.248c0-0.17293 6e-3 -0.34427 0.0176-0.51366z"/>
     <path d="m-131.11-112.74c0.0116 0.16939 0.0171 0.34073 0.0171 0.51366v65.248c0 3.5439-2.4621 6.397-5.5206 6.397-0.8938 0-1.7366-0.24362-2.482-0.67696v36.736c0 3.5438 2.9943 6.397 6.7143 6.397h6.5526c3.72 0 6.7148-2.8532 6.7148-6.397v-107.21c0-0.34434-0.0281-0.6825-0.0827-1.0118z"/>
    </g>
    <g stroke-width=".95832">
     <path d="m-142.1-112.56c-0.0125 0.1761-0.0191 0.35438-0.0191 0.53433v65.248c0 3.5439 2.4626 6.397 5.5211 6.397 3.0585 0 5.5206-2.8532 5.5206-6.397v-65.248c0-0.17995-6e-3 -0.35823-0.0186-0.53433z"/>
     <path d="m-250.29-112.76c-0.0125 0.1761-0.0191 0.35438-0.0191 0.53433v65.248c0 3.5439 2.4626 6.397 5.5211 6.397 3.0585 0 5.5206-2.8532 5.5206-6.397v-65.248c0-0.17995-6e-3 -0.35823-0.0186-0.53433z"/>
     <path d="m-226.19-112.79c-0.0125 0.1761-0.0191 0.35438-0.0191 0.53433v65.248c0 3.5439 2.4626 6.397 5.5211 6.397 3.0585 0 5.5206-2.8532 5.5206-6.397v-65.248c0-0.17995-6e-3 -0.35823-0.0186-0.53433z"/>
     <path d="m-190.12-112.75c-0.0125 0.1761-0.0191 0.35438-0.0191 0.53433v65.248c0 3.5439 2.4626 6.397 5.5211 6.397 3.0585 0 5.5206-2.8532 5.5206-6.397v-65.248c0-0.17995-6e-3 -0.35823-0.0186-0.53433z"/>
     <path d="m-166.1-112.78c-0.0125 0.1761-0.0191 0.35438-0.0191 0.53433v65.248c0 3.5439 2.4626 6.397 5.5211 6.397 3.0585 0 5.5206-2.8532 5.5206-6.397v-65.248c0-0.17995-6e-3 -0.35823-0.0186-0.53433z"/>
    </g>
   </g>
   <g transform="translate(86.425 274.91)" fill="none" stroke="#000" stroke-linecap="round" stroke-linejoin="round">
    <g stroke-width=".9758">
     <path d="m-262.12-112.75c-0.0519 0.32939-0.0786 0.6674-0.0786 1.0118v107.23c0 3.5446 2.8535 6.3986 6.3981 6.3986h6.2435c3.5446 0 6.3981-2.854 6.3981-6.3986v-36.325c-0.49335 0.16657-1.0155 0.2558-1.5565 0.2558-3.0586 0-5.5211-2.8532-5.5211-6.397v-65.248c0-0.17697 6e-3 -0.35229 0.0186-0.52555z"/>
     <path d="m-239.22-112.75c0.0112 0.16618 0.0165 0.33427 0.0165 0.50385v65.248c0 2.4835-1.2091 4.6277-2.9854 5.6885v36.799c0 3.5446 2.8535 6.3986 6.3981 6.3986h6.2436c3.5446 0 6.398-2.854 6.398-6.3986v-36.715c-1.8348-1.0376-3.0928-3.2179-3.0928-5.7511v-65.248c0-0.17701 6e-3 -0.35225 0.0181-0.52555z"/>
     <path d="m-215.16-112.75c8e-3 0.14257 0.0119 0.28649 0.0119 0.4315v65.248c0 3.5439-2.462 6.397-5.5206 6.397-0.52013 0-1.0227-0.0823-1.4991-0.23667v36.4c0 3.5446 2.8535 6.3986 6.398 6.3986h6.2436c3.5446 0 6.3981-2.854 6.3981-6.3986v-107.23c0-0.34442-0.0271-0.68243-0.0791-1.0118z"/>
    </g>
    <g stroke-width=".99956">
     <path d="m-155.11-112.74c0.011 0.165 0.0165 0.33189 0.0165 0.50023v65.248c0 3.3436-2.192 6.0725-5.0085 6.3702v36.099c0 3.5438 2.9948 6.397 6.7148 6.397h6.5526c3.72 0 6.7148-2.8532 6.7148-6.397v-37.515c-1.228-1.1714-2.0087-2.9477-2.0087-4.9428v-65.248c0-0.17225 6e-3 -0.34286 0.0176-0.5116z"/>
     <path d="m-179.11-112.74c0.0118 0.17094 0.0176 0.34377 0.0176 0.51831v65.248c0 1.9992-0.78371 3.7787-2.0159 4.9501v37.501c0 3.5438 2.9948 6.397 6.7148 6.397h6.5526c3.72 0 6.7143-2.8532 6.7143-6.397v-36.086c-2.8166-0.29765-5.0085-3.0265-5.0085-6.3702v-65.248c0-0.17293 6e-3 -0.34427 0.0176-0.51366z"/>
     <path d="m-202.03-112.74c-0.0545 0.32932-0.0827 0.66748-0.0827 1.0118v107.21c0 3.5438 2.9948 6.397 6.7148 6.397h6.5526c3.72 0 6.7148-2.8532 6.7148-6.397v-36.735c-0.74525 0.43319-1.5879 0.67644-2.4815 0.67644-3.0586 0-5.5211-2.8532-5.5211-6.397v-65.248c0-0.17293 6e-3 -0.34427 0.0176-0.51366z"/>
     <path d="m-131.11-112.74c0.0116 0.16939 0.0171 0.34073 0.0171 0.51366v65.248c0 3.5439-2.4621 6.397-5.5206 6.397-0.8938 0-1.7366-0.24362-2.482-0.67696v36.736c0 3.5438 2.9943 6.397 6.7143 6.397h6.5526c3.72 0 6.7148-2.8532 6.7148-6.397v-107.21c0-0.34434-0.0281-0.6825-0.0827-1.0118z"/>
    </g>
    <g stroke-width=".95832">
     <path d="m-142.1-112.56c-0.0125 0.1761-0.0191 0.35438-0.0191 0.53433v65.248c0 3.5439 2.4626 6.397 5.5211 6.397 3.0585 0 5.5206-2.8532 5.5206-6.397v-65.248c0-0.17995-6e-3 -0.35823-0.0186-0.53433z"/>
     <path d="m-250.29-112.76c-0.0125 0.1761-0.0191 0.35438-0.0191 0.53433v65.248c0 3.5439 2.4626 6.397 5.5211 6.397 3.0585 0 5.5206-2.8532 5.5206-6.397v-65.248c0-0.17995-6e-3 -0.35823-0.0186-0.53433z"/>
     <path d="m-226.19-112.79c-0.0125 0.1761-0.0191 0.35438-0.0191 0.53433v65.248c0 3.5439 2.4626 6.397 5.5211 6.397 3.0585 0 5.5206-2.8532 5.5206-6.397v-65.248c0-0.17995-6e-3 -0.35823-0.0186-0.53433z"/>
     <path d="m-190.12-112.75c-0.0125 0.1761-0.0191 0.35438-0.0191 0.53433v65.248c0 3.5439 2.4626 6.397 5.5211 6.397 3.0585 0 5.5206-2.8532 5.5206-6.397v-65.248c0-0.17995-6e-3 -0.35823-0.0186-0.53433z"/>
     <path d="m-166.1-112.78c-0.0125 0.1761-0.0191 0.35438-0.0191 0.53433v65.248c0 3.5439 2.4626 6.397 5.5211 6.397 3.0585 0 5.5206-2.8532 5.5206-6.397v-65.248c0-0.17995-6e-3 -0.35823-0.0186-0.53433z"/>
    </g>
   </g>
  </g>
  <g fill="#ff0c31" stroke="#f3f3f0" stroke-linecap="round" stroke-linejoin="round" stroke-width="2.0436">
   <path transform="matrix(.26458 0 0 .26458 -590.65 76.556)" d="m-248.22-616.54c-6.2695-1.5896-12.47-6.4709-15.087-11.877-2.4037-4.9653-2.4402-6.076-2.4402-74.169v-69.128l4.4676 0.59923c9.2702 1.2434 18.178-4.2457 22.72-14.001l2.7004-5.7991 0.0112-126.83 0.0112-126.83h40.265v411.49l-2.6778 5.0702c-1.756 3.3248-4.5899 6.2545-8.2323 8.5103-5.4141 3.3531-5.9644 3.4462-21.769 3.6825-8.9178 0.13334-17.904-0.18605-19.97-0.70974z" style="paint-order:stroke fill markers"/>
   <path transform="matrix(.26458 0 0 .26458 -590.65 76.556)" d="m-176.59-618.22c-4.5616-2.0898-9.236-7.1819-11.443-12.466-1.5926-3.8125-1.7867-26.528-1.7867-209.09v-204.81h40.226l0.30722 127.41 0.30722 127.41 2.4765 4.6017c4.3362 8.0573 12.124 13.23 19.92 13.23h3.4882v69.646c0 67.603-0.0682 69.78-2.3236 74.201-1.278 2.505-4.4734 5.9788-7.1009 7.7195-4.6394 3.0736-5.2945 3.1731-22.698 3.4482-13.265 0.20964-18.817-0.12757-21.372-1.2979z" style="paint-order:stroke fill markers"/>
   <path transform="matrix(.26458 0 0 .26458 -590.65 76.556)" d="m-132.87-778.79c-5.2896-2.6827-9.5452-8.3475-11.009-14.655-0.55832-2.4052-1.0275-59.895-1.0426-127.76l-0.0274-123.38h36.813l-0.0253 125.68c-0.0242 120.27-0.11796 125.89-2.1756 130.42-4.3586 9.598-14.293 13.87-22.533 9.6911z" style="paint-order:stroke fill markers"/>
   <path transform="matrix(.26458 0 0 .26458 -590.65 76.556)" d="m-102.19-619.05c-2.8751-1.4472-6.2819-4.4703-8.053-7.1461l-3.0696-4.6377-0.31299-72.48-0.31299-72.48 3.4183-3.5322c1.8801-1.9427 4.3505-5.603 5.4899-8.1339 1.9481-4.3275 2.0904-12.125 2.3884-130.86l0.31688-126.26h43.618l0.30722 127.41c0.29351 121.72 0.40281 127.59 2.4492 131.44 1.1781 2.2146 3.6486 5.6161 5.4901 7.5589l3.348 3.5324-0.62635 143.81-2.7723 4.0451c-1.5248 2.2248-4.5907 5.2927-6.8132 6.8174-3.7816 2.5944-5.191 2.7934-21.962 3.1007-16.494 0.30225-18.318 0.12872-22.904-2.18z" style="paint-order:stroke fill markers"/>
   <path transform="matrix(.26458 0 0 .26458 -590.65 76.556)" d="m-44.349-779.97c-1.9297-1.2367-4.777-4.4636-6.3273-7.1708l-2.8187-4.9221-0.30739-126.26-0.30739-126.26h36.853v251.45l-2.5884 5.1238c-1.4236 2.8181-4.3475 6.2927-6.4974 7.7215-5.0033 3.325-13.085 3.4643-18.006 0.31035z" style="paint-order:stroke fill markers"/>
   <path transform="matrix(.26458 0 0 .26458 -590.65 76.556)" d="m-25.275-618.41c-5.2818-2.3447-7.877-4.8052-10.51-9.965-2.0666-4.0492-2.1784-7.8425-2.1784-73.915 0-65.56 0.11811-69.647 2.0132-69.653 8.3151-0.0265 17.539-6.4475 21.475-14.949 2.3762-5.1329 2.3992-6.25 2.7087-131.44l0.31216-126.26h40.216v410.21l-2.5884 5.0664c-1.4236 2.7865-4.576 6.6494-7.0053 8.5843l-4.4169 3.518-18.016 0.28322c-14.201 0.22325-18.862-0.0921-22.009-1.489z" style="paint-order:stroke fill markers"/>
   <path transform="matrix(.26458 0 0 .26458 -590.65 76.556)" d="m52.344-618.15c-5.8302-2.2814-9.2221-5.1447-12.149-10.256l-2.8061-4.8996v-410.7l40.84-0.6283 0.02527 126.86c0.02394 120.22 0.13494 127.1 2.1202 131.47 4.1276 9.0857 14.355 15.238 23.332 14.034l4.5013-0.60375-0.32136 70.548-0.32135 70.548-3.4513 4.8991c-1.8982 2.6945-5.7329 6.1036-8.5215 7.5759-4.6865 2.4742-6.3842 2.6701-22.433 2.5892-10.349-0.0522-18.757-0.63309-20.814-1.438z" style="paint-order:stroke fill markers"/>
   <path transform="matrix(.26458 0 0 .26458 -590.65 76.556)" d="m94.91-778.7c-5.4735-2.5134-7.9263-5.079-10.31-10.784-1.5557-3.7233-1.7695-19.392-1.7695-129.67v-125.43h36.853l-0.30738 126.26-0.30739 126.26-3.2741 5.5702c-2.3333 3.9696-4.6473 6.1937-8.053 7.7401-5.9216 2.6888-7.0889 2.6939-12.832 0.0568z" style="paint-order:stroke fill markers"/>
   <path transform="matrix(.26458 0 0 .26458 -590.65 76.556)" d="m131.72-618.11c-5.8881-2.3702-9.2352-5.2065-12.149-10.295l-2.8061-4.8996-0.32885-72.34c-0.28454-62.591-0.0992-72.594 1.3748-74.223 0.93699-1.0354 2.7561-4.2028 4.0424-7.0387 2.3055-5.0826 2.3392-6.958 2.3641-131.41l0.0253-126.26h43.658l0.31675 126.83 0.31676 126.83 3.3205 5.9919c3.3488 6.043 10.078 11.84 13.744 11.84 1.862 0 1.9653 4.3758 1.6638 70.463-0.31319 68.64-0.38249 70.567-2.6775 74.474-1.2958 2.2058-4.5738 5.5708-7.2845 7.4777l-4.9285 3.4672-18.6 0.23888c-12.388 0.15911-19.753-0.22512-22.051-1.1504z" style="paint-order:stroke fill markers"/>
   <path transform="matrix(.26458 0 0 .26458 -590.65 76.556)" d="m188.09-777.34c-4.2282-1.0723-10.006-6.3596-12.179-11.145-2.0577-4.5311-2.1514-10.153-2.1756-130.42l-0.0253-125.68h36.863l-0.31216 126.26c-0.28749 116.28-0.46671 126.54-2.2666 129.83-2.2005 4.0172-9.473 10.804-11.603 10.828-0.7689 9e-3 -2.4334 0.21849-3.6988 0.46631-1.2655 0.24784-3.3362 0.18803-4.6017-0.13291z" style="paint-order:stroke fill markers"/>
   <path transform="matrix(.26458 0 0 .26458 -590.65 76.556)" d="m211.1-618.11c-5.8881-2.3702-9.2352-5.2065-12.149-10.295l-2.8061-4.8996-0.32979-69.888c-0.31483-66.72-0.23567-69.888 1.7462-69.888 3.6137 0 10.466-5.582 13.786-11.231l3.2039-5.4503 0.30721-127.41 0.30722-127.41h43.677v123.61c0 83.986 0.39734 125.47 1.2395 129.39 0.6817 3.1787 2.4936 7.6275 4.0265 9.8863l2.787 4.1069v143.21l-2.5884 5.1177c-1.5111 2.9876-4.6627 6.5605-7.5722 8.5843l-4.9837 3.4667-18.6 0.23888c-12.388 0.15911-19.753-0.22512-22.051-1.1504z" style="paint-order:stroke fill markers"/>
   <path transform="matrix(.26458 0 0 .26458 -590.65 76.556)" d="m276.85-778.18c-4.4295-1.6077-6.4747-3.6643-10.243-10.299-1.8836-3.3169-2.0132-11.676-2.0132-129.82v-126.28h36.872l-0.317 125.68c-0.35265 139.82 0.23222 130.06-8.2386 137.49-2.3308 2.0465-4.867 3.728-5.6359 3.7366-0.76889 9e-3 -2.4334 0.25755-3.6988 0.55311-1.2655 0.29557-4.2922-0.18538-6.726-1.0688z" style="paint-order:stroke fill markers"/>
  </g>
  <g fill="#fc7b00" stroke="#f3f3f0" stroke-linecap="round" stroke-linejoin="round" stroke-width="2.0436">
   <path transform="matrix(.26458 0 0 .26458 -590.65 76.556)" d="m290.48-618.11c-5.8881-2.3702-9.2352-5.2065-12.149-10.295l-2.8061-4.8996-0.67568-138.51 6.8311 0.0327c9.9309 0.0475 16.365-4.1079 21.611-13.957 2.0497-3.8484 2.1584-9.6608 2.4565-131.44l0.31195-127.41h40.216v410.21l-2.5884 5.1177c-1.5111 2.9876-4.6627 6.5605-7.5722 8.5843l-4.9837 3.4667-18.6 0.23888c-12.388 0.15911-19.753-0.22512-22.051-1.1504z" style="paint-order:stroke fill markers"/>
   <path transform="matrix(.26458 0 0 .26458 -590.65 76.556)" d="m367.99-618.93c-5.3802-2.843-9.8052-8.1452-11.305-13.546-0.79666-2.8685-1.1903-71.473-1.1946-208.19l-6e-3 -203.91h40.225l0.3073 126.87 0.3073 126.87 2.9389 5.7103c3.7976 7.3787 10.137 11.876 18.064 12.815l6.0323 0.71444-6e-3 66.852c-4e-3 44.752-0.42195 68.373-1.2634 71.453-1.6982 6.2169-5.9847 11.625-11.406 14.391-3.9 1.9896-6.7225 2.2836-21.504 2.2394-14.488-0.0433-17.634-0.37836-21.189-2.2569z" style="paint-order:stroke fill markers"/>
   <path transform="matrix(.26458 0 0 .26458 -590.65 76.556)" d="m414.85-777.7c-4.3286-1.3293-9.766-6.4874-11.766-11.162-1.3128-3.0682-1.584-25.272-1.584-129.71v-126.01h35.663v126.02c0 122.81-0.0574 126.13-2.2504 130.43-2.3171 4.5418-8.3915 10.441-10.78 10.468-0.74237 9e-3 -2.3851 0.23476-3.6506 0.50247-1.2655 0.26773-3.7999 0.0264-5.6321-0.53625z" style="paint-order:stroke fill markers"/>
   <path transform="matrix(.26458 0 0 .26458 -590.65 76.556)" d="m444.64-618.26c-4.841-2.1671-10.759-8.7152-12.099-13.387-0.68552-2.3903-1.1312-31.426-1.1312-73.695v-69.751l4.0593-4.4317c7.7633-8.4755 7.4449-2.4693 7.4449-140.44v-124.61h43.716v124.61c0 138.27-0.31465 132.38 7.5073 140.67l3.9969 4.238v143.03l-3.3208 5.2363c-5.4608 8.6109-10.125 10.179-30.117 10.125-11.33-0.0307-17.702-0.53591-20.057-1.59z" style="paint-order:stroke fill markers"/>
   <path transform="matrix(.26458 0 0 .26458 -590.65 76.556)" d="m498.71-782.57c-3.7544-3.7649-5.1747-6.2912-6.176-10.986-0.92046-4.3155-1.3003-41.87-1.3003-128.56v-122.46h37.964l-0.0281 122.81c-0.0184 80.234-0.43981 124.59-1.2157 127.96-2.3345 10.132-9.3929 16.129-18.983 16.129-4.804 0-5.9118-0.52784-10.261-4.8893z" style="paint-order:stroke fill markers"/>
   <path transform="matrix(.26458 0 0 .26458 -590.65 76.556)" d="m519.03-619.05c-2.8751-1.4472-6.2819-4.4704-8.053-7.146l-3.0696-4.6377-0.62632-140.79 4.6269-0.62059c7.5016-1.0062 14.072-5.6071 17.915-12.545l3.3934-6.1258 0.31206-126.83 0.31206-126.83h40.234l-0.29691 206.87-0.2969 206.87-2.7723 4.0458c-1.5248 2.2252-4.5907 5.2934-6.8132 6.8181-3.7816 2.5944-5.191 2.7934-21.962 3.1007-16.494 0.30225-18.318 0.12872-22.904-2.18z" style="paint-order:stroke fill markers"/>
   <path transform="matrix(.26458 0 0 .26458 -590.65 76.556)" d="m597.07-618.46c-2.2146-0.95924-5.4963-3.1392-7.2928-4.8443-6.9923-6.6366-6.5122 9.2355-6.5122-215.3v-205.98h40.265v125.55c0 91.953 0.35728 126.74 1.3351 130.01 3.0753 10.264 14.243 18.084 23.965 16.78l4.611-0.61847v68.953c0 74.388 0.0651 73.531-6.0946 80.232-5.348 5.8174-10.279 7.0052-28.993 6.9838-12.847-0.0147-18.285-0.46543-21.283-1.7638z" style="paint-order:stroke fill markers"/>
   <path transform="matrix(.26458 0 0 .26458 -590.65 76.556)" d="m640.1-778.73c-5.0698-2.3024-8.5226-6.407-10.639-12.647-0.96934-2.8579-1.3264-37.464-1.3264-128.56v-124.65h36.853l-0.6146 253.84-3.2398 4.8952c-2.0382 3.0797-5.0248 5.7056-8.053 7.0805-5.967 2.7091-7.1026 2.713-12.98 0.0438z" style="paint-order:stroke fill markers"/>
   <path transform="matrix(.26458 0 0 .26458 -590.65 76.556)" d="m675.87-618.81c-5.3561-2.4798-10.267-7.3823-12.006-11.987-0.81728-2.1631-1.2236-27.289-1.2236-75.665v-72.426l6.3273-9.5605 0.30714-128.07 0.30713-128.07h44.827l0.0253 126.83c0.024 120.19 0.13495 127.08 2.1202 131.45 2.3794 5.2377 9.159 11.687 13.406 12.753l2.855 0.71655v68.938c0 74.371 0.065 73.516-6.0946 80.216-5.3407 5.8094-10.284 7.0035-28.993 7.0035-14.373 0-18.025-0.35598-21.858-2.1305z" style="paint-order:stroke fill markers"/>
   <path transform="matrix(.26458 0 0 .26458 -590.65 76.556)" d="m730.88-778.76c-3.0153-1.378-6.0233-4.0282-8.053-7.095l-3.2398-4.8953-0.30247-126.92-0.30248-126.92h36.883l-0.30738 126.26-0.30739 126.26-2.8322 4.9461c-5.0136 8.7556-13.483 12.044-21.538 8.3632z" style="paint-order:stroke fill markers"/>
   <path transform="matrix(.26458 0 0 .26458 -590.65 76.556)" d="m755.25-618.81c-5.3561-2.4798-10.267-7.3823-12.006-11.987-0.81522-2.1577-1.2236-26.402-1.2236-72.639v-69.401l2.7874-0.6996c4.5466-1.1411 10.011-6.5361 12.896-12.733l2.7004-5.7991 0.0112-126.26 0.0112-126.26h43.716l7e-3 122.23c4e-3 73.312 0.45237 124.95 1.1203 129.03 0.6125 3.7402 2.4214 8.7766 4.0198 11.192l2.9062 4.3915v71.388c0 77.04 0.0804 75.949-6.0946 82.666-5.3407 5.8094-10.284 7.0035-28.993 7.0035-14.373 0-18.025-0.35598-21.858-2.1305z" style="paint-order:stroke fill markers"/>
   <path transform="matrix(.26458 0 0 .26458 -590.65 76.556)" d="m822.18-778.19c-4.9203-1.7696-6.8016-3.7264-10.022-10.424-2.1409-4.4529-2.2133-8.6652-2.2377-130.29l-0.0253-125.68h36.813l-0.0274 123.38c-0.0151 67.86-0.48426 125.35-1.0426 127.76-2.7915 12.025-13.349 18.89-23.459 15.254z" style="paint-order:stroke fill markers"/>
  </g>
  <g fill="#fbd12c" stroke="#f3f3f0" stroke-linecap="round" stroke-linejoin="round" stroke-width="2.0436">
   <path transform="matrix(.26458 0 0 .26458 -590.65 76.556)" d="m834.63-618.81c-5.3561-2.4798-10.267-7.3823-12.006-11.987-0.81484-2.1566-1.2236-26.245-1.2236-72.107v-68.868h6.3121c7.2767 0 13.905-3.1314 17.811-8.4146 5.9871-8.098 5.7881-3.3347 5.7881-138.57v-125.83h40.265v204.81c0 222.64 0.38348 209.04-6.0946 216.09-5.3407 5.8094-10.284 7.0035-28.993 7.0035-14.373 0-18.025-0.35598-21.858-2.1305z" style="paint-order:stroke fill markers"/>
   <path transform="matrix(.26458 0 0 .26458 -590.65 76.556)" d="m913.21-618.97c-5.2291-2.7617-9.4947-8.2407-11.159-14.334-0.88681-3.2465-1.2589-64.482-1.2634-207.94l-6e-3 -203.34h40.216l0.31207 126.83 0.31206 126.83 3.3205 5.9919c4.1827 7.5479 10.024 11.689 17.784 12.608l5.9301 0.70233-6e-3 67.427c-4e-3 42.832-0.43983 68.988-1.1946 71.705-1.532 5.5163-5.9901 10.766-11.552 13.604-3.8062 1.9418-6.7444 2.2434-21.426 2.1996-14.593-0.0436-17.62-0.37043-21.267-2.2966z" style="paint-order:stroke fill markers"/>
   <path transform="matrix(.26458 0 0 .26458 -590.65 76.556)" d="m960.16-777.72c-4.5128-1.3512-8.6468-5.3732-11.193-10.889-2.0233-4.3838-2.125-10.552-2.1491-130.29l-0.0253-125.68h36.813v123.46c0 136.33 0.2571 131.35-7.1586 138.51-3.6529 3.5236-8.8158 6.1828-11.611 5.98-0.74972-0.0544-2.8544-0.5454-4.6772-1.0911z" style="paint-order:stroke fill markers"/>
   <path transform="matrix(.26458 0 0 .26458 -590.65 76.556)" d="m989.94-618.43c-5.2065-2.7078-8.6998-6.3166-11.056-11.421-1.991-4.3139-2.1254-9.0273-2.1491-75.363-0.0246-68.818 0.0361-70.8 2.2081-72.157 1.2284-0.76712 3.6874-3.8684 5.4645-6.8916l3.2311-5.4969 0.30722-127.41 0.30722-127.41h43.618l0.3167 126.83 0.3168 126.83 3.3359 6.0203c1.8347 3.3112 4.5526 6.8175 6.0397 7.7919l2.7038 1.7716-0.028 68.136c-0.018 42.644-0.4724 70.064-1.2157 73.29-1.5612 6.7757-5.9977 12.42-11.852 15.078-6.4272 2.9187-36.151 3.199-41.549 0.39175z" style="paint-order:stroke fill markers"/>
   <path transform="matrix(.26458 0 0 .26458 -590.65 76.556)" d="m1045.8-780.71c-1.9745-1.6614-4.6027-5.0058-5.8404-7.4319-2.1931-4.2987-2.2504-7.623-2.2504-130.43v-126.02h36.814l-0.01 123.96c0 81.719-0.4113 125.42-1.1946 128.24-3.5337 12.724-18.656 19.143-27.522 11.683z" style="paint-order:stroke fill markers"/>
   <path transform="matrix(.26458 0 0 .26458 -590.65 76.556)" d="m1065.9-618.2c-4.5767-2.071-9.7311-7.3335-11.665-11.91-1.2605-2.9825-1.5645-17.094-1.5645-72.616v-68.914l5.6077-0.7439c7.4357-0.98638 14.043-5.872 17.536-12.967l2.7411-5.5679 0.3025-126.83 0.3025-126.83h40.235v411.12l-2.4402 5.0408c-1.4677 3.0317-4.2978 6.2715-7.1009 8.1286-4.4968 2.9792-5.2908 3.0977-22.581 3.371-13.146 0.20777-18.84-0.13285-21.372-1.2785z" style="paint-order:stroke fill markers"/>
   <path transform="matrix(.26458 0 0 .26458 -590.65 76.556)" d="m1141.2-619.21c-2.7865-1.4236-6.6494-4.5778-8.5843-7.0092l-3.5179-4.4208-0.5938-413.94h40.244l0.3072 127.41 0.3072 127.41 2.538 4.7446c4.744 8.8685 13.598 13.926 22.33 12.755l4.4675-0.59923v69.416c0 46.249-0.4083 70.497-1.2236 72.655-1.7396 4.6042-6.6501 9.5067-12.006 11.987-3.8247 1.7708-7.5227 2.1348-21.902 2.1558-15.701 0.0229-17.768-0.21396-22.367-2.5632z" style="paint-order:stroke fill markers"/>
   <path transform="matrix(.26458 0 0 .26458 -590.65 76.556)" d="m1185.2-778.97c-3.3496-1.658-5.9203-4.1366-8.053-7.7644l-3.1327-5.329-0.6148-252.52h36.853l-0.025 125.68c-0.024 119.73-0.1258 125.9-2.1491 130.29-2.5606 5.5481-6.2625 9.0105-11.515 10.77-5.2031 1.7427-5.6556 1.6978-11.363-1.1275z" style="paint-order:stroke fill markers"/>
   <path transform="matrix(.26458 0 0 .26458 -590.65 76.556)" d="m1220.6-619.21c-2.7865-1.4236-6.6495-4.5776-8.5843-7.0087l-3.518-4.4203-0.3124-74.266c-0.2706-64.332-0.084-74.518 1.3942-76.151 5.3923-5.9585 5.2455-2.1266 5.2455-136.94v-126.58h44.866v125.55c0 91.953 0.3572 126.74 1.3351 130.01 1.7681 5.9014 8.1227 13.169 13.083 14.963l3.9889 1.4424v69.294c0 46.163-0.4085 70.376-1.2236 72.533-1.7396 4.6042-6.6502 9.5067-12.006 11.987-3.8248 1.7708-7.5227 2.1348-21.902 2.1558-15.701 0.0229-17.768-0.21396-22.366-2.5632z" style="paint-order:stroke fill markers"/>
   <path transform="matrix(.26458 0 0 .26458 -590.65 76.556)" d="m1276.3-778.73c-5.0698-2.3024-8.5226-6.407-10.639-12.647-0.9693-2.8579-1.3263-37.464-1.3263-128.56v-124.65h36.853l-0.6146 253.84-3.2397 4.8952c-2.0383 3.0797-5.0248 5.7056-8.053 7.0805-5.967 2.7091-7.1025 2.713-12.98 0.0438z" style="paint-order:stroke fill markers"/>
   <path transform="matrix(.26458 0 0 .26458 -590.65 76.556)" d="m1300-619.21c-2.7866-1.4236-6.6495-4.5776-8.5844-7.0087l-3.5179-4.4202-0.626-142.18 2.8803-0.72292c4.2699-1.0717 11.047-7.5091 13.432-12.759 1.9853-4.3701 2.0963-11.252 2.1202-131.45l0.025-126.83h44.866v253.92l6.8734 13.554 0.015 71.539c0.01 47.783-0.3918 72.614-1.209 74.777-1.7396 4.6042-6.6502 9.5067-12.006 11.987-3.8247 1.7708-7.5227 2.1348-21.902 2.1558-15.701 0.0229-17.768-0.21396-22.366-2.5632z" style="paint-order:stroke fill markers"/>
   <path transform="matrix(.26458 0 0 .26458 -590.65 76.556)" d="m1367.3-778.35c-3.391-1.2064-5.5096-3.074-8.0529-7.099l-3.4513-5.462-0.3024-126.83-0.3025-126.83h36.843v250.38l-3.1637 6.246c-2.477 4.8903-4.2777 6.8078-8.2967 8.8344-5.8661 2.9581-6.9461 3.0208-13.274 0.76976z" style="paint-order:stroke fill markers"/>
  </g>
  <g fill="#009640" stroke="#f3f3f0" stroke-linecap="round" stroke-linejoin="round" stroke-width="2.0436">
   <path transform="matrix(.26458 0 0 .26458 -590.65 76.556)" d="m1379.4-619.21c-2.7865-1.4236-6.6494-4.5775-8.5843-7.0086l-3.518-4.4202-0.3134-70.779-0.3135-70.779 3.6843 0.54074c9.6437 1.4154 18.537-3.5962 23.283-13.12l2.995-6.0102v-253.79h40.265v205.28c0 142.24-0.3757 206.27-1.2236 208.51-1.7396 4.6042-6.6502 9.5067-12.006 11.987-3.8247 1.7708-7.5227 2.1348-21.902 2.1558-15.701 0.0229-17.768-0.21396-22.366-2.5632z" style="paint-order:stroke fill markers"/>
   <path transform="matrix(.26458 0 0 .26458 -590.65 76.556)" d="m1459.9-618.45c-5.2579-2.2806-7.8663-4.7435-10.51-9.9243-2.1136-4.1413-2.1784-10.396-2.1784-210.24v-205.97h40.265l0.025 126.83c0.024 121 0.1233 127.05 2.1558 131.44 3.7878 8.1813 12.75 14.38 20.79 14.38h3.4882l-0.025 68.738c-0.024 64.452-0.1581 69.025-2.1558 73.339-2.4798 5.3561-7.3823 10.267-11.986 12.006-5.1204 1.9346-35.065 1.4854-39.868-0.59805z" style="paint-order:stroke fill markers"/>
   <path transform="matrix(.26458 0 0 .26458 -590.65 76.556)" d="m1504-778.77c-3.0282-1.3749-6.0146-4.0007-8.0529-7.0806l-3.2397-4.8953-0.605-253.84h36.883l-0.6148 252.52-3.1474 5.354c-2.1857 3.7181-4.6694 6.0908-8.1285 7.7653-6.0569 2.9321-6.9953 2.9446-13.094 0.17554z" style="paint-order:stroke fill markers"/>
   <path transform="matrix(.26458 0 0 .26458 -590.65 76.556)" d="m1535.2-618.53c-5.9847-3.1495-9.7763-7.5875-11.531-13.497-1.4149-4.7646-1.6986-17.179-1.6986-74.336v-68.616l3.0283-2.789c1.6656-1.5339 4.249-5.3774 5.7409-8.5411l2.7125-5.7521 0.011-126.26 0.011-126.26h44.866l0.025 126.83c0.024 121 0.1232 127.05 2.1558 131.44 1.1717 2.5309 3.7488 6.1222 5.7268 7.9806l3.5963 3.3789-0.01 69.098c0 43.982-0.4383 70.653-1.1946 73.376-1.532 5.5163-5.9901 10.766-11.552 13.604-3.8047 1.941-6.7503 2.2441-21.426 2.2043-13.209-0.0358-17.786-0.45231-20.466-1.8623z" style="paint-order:stroke fill markers"/>
   <path transform="matrix(.26458 0 0 .26458 -590.65 76.556)" d="m1592.1-780.28c-2.1499-1.4288-5.0738-4.9034-6.4974-7.7215l-2.5885-5.1238v-251.45h36.814l-0.025 125.11c-0.028 140.34 0.5992 130.1-8.4623 138.06-3.5321 3.1012-5.1801 3.729-9.7891 3.729-3.832 0-6.748-0.8015-9.4509-2.5977z" style="paint-order:stroke fill markers"/>
   <path transform="matrix(.26458 0 0 .26458 -590.65 76.556)" d="m1611.2-618.43c-5.2064-2.7078-8.6997-6.3166-11.056-11.421-1.9886-4.3088-2.1254-8.967-2.149-73.191l-0.025-68.589 5.6078-0.7439c7.7903-1.0334 14.529-6.1537 18.049-13.714l2.7801-5.9712 0.011-126.26 0.011-126.26h40.265v205.97c0 199.84-0.065 206.1-2.1784 210.24-5.0189 9.8336-10.146 11.748-31.434 11.739-12.635-5e-3 -17.228-0.42176-19.882-1.802z" style="paint-order:stroke fill markers"/>
   <path transform="matrix(.26458 0 0 .26458 -590.65 76.556)" d="m1687.1-618.8c-5.5691-2.5703-9.074-6.2123-11.449-11.897-1.5845-3.7922-1.7805-26.814-1.7805-209.07v-204.81h40.225l0.3073 126.87 0.3073 126.87 2.939 5.7103c1.7795 3.4577 4.8819 7.0759 7.8644 9.1721 4.1308 2.9033 6.0232 3.4618 11.729 3.4618h6.8035v140.47l-3.1573 4.8692c-2.0737 3.1981-5.1122 5.8434-8.854 7.708-5.3071 2.6446-6.8816 2.8371-23.015 2.8136-14.372-0.021-18.101-0.38663-21.92-2.1491z" style="paint-order:stroke fill markers"/>
   <path transform="matrix(.26458 0 0 .26458 -590.65 76.556)" d="m1733.2-777.71c-1.8389-0.56445-5.0887-2.7178-7.2217-4.7852-7.5419-7.31-7.2664-2.053-7.2664-138.63v-123.46h36.814v126.02c0 122.81-0.057 126.13-2.2504 130.43-2.3171 4.5418-8.3915 10.441-10.78 10.468-0.7424 9e-3 -2.3852 0.23476-3.6506 0.50247-1.2655 0.26773-3.8054 0.0249-5.6443-0.53951z" style="paint-order:stroke fill markers"/>
   <path transform="matrix(.26458 0 0 .26458 -590.65 76.556)" d="m1766.5-618.8c-5.5692-2.5703-9.0741-6.2123-11.449-11.897-1.5422-3.691-1.7806-13.817-1.7806-75.642v-71.38l7.4778-13.195 0.312-126.83 0.3121-126.83h43.628l0.3072 127.41 0.3072 127.41 2.538 4.7446c2.8857 5.3945 8.3949 10.455 12.506 11.486l2.7874 0.6996v140.79l-3.1572 4.8692c-2.0737 3.1981-5.1123 5.8434-8.854 7.708-5.3071 2.6446-6.8817 2.8371-23.015 2.8136-14.372-0.021-18.101-0.38663-21.92-2.1491z" style="paint-order:stroke fill markers"/>
   <path transform="matrix(.26458 0 0 .26458 -590.65 76.556)" d="m1824.5-777.63c-5.0663-1.5354-8.5547-4.433-11.475-9.5316l-2.8061-4.8996-0.6148-252.52h36.853l-0.025 125.68c-0.024 119.49-0.1293 125.91-2.1384 130.29-2.5134 5.4735-5.079 7.9263-10.784 10.31-4.6706 1.9515-4.7597 1.9581-9.0101 0.67003z" style="paint-order:stroke fill markers"/>
   <path transform="matrix(.26458 0 0 .26458 -590.65 76.556)" d="m1845.9-618.8c-5.5691-2.5703-9.074-6.2123-11.449-11.897-1.5398-3.6855-1.7805-13.579-1.7805-73.199v-68.938l2.855-0.71655c4.3892-1.1016 11.07-7.5917 13.73-13.338 2.376-5.1325 2.3993-6.2599 2.7181-131.44l0.3215-126.26h43.609l0.3071 127.98 0.3072 127.98 3.1636 5.3818 3.1637 5.3818v145.81l-3.1572 4.8692c-2.0738 3.1981-5.1123 5.8434-8.8541 7.708-5.307 2.6446-6.8816 2.8371-23.015 2.8136-14.372-0.021-18.101-0.38663-21.92-2.1491z" style="paint-order:stroke fill markers"/>
   <path transform="matrix(.26458 0 0 .26458 -590.65 76.556)" d="m1912-779.12c-4.0189-2.0266-5.8197-3.9441-8.2967-8.8344l-3.1636-6.246v-250.38h36.843l-0.605 253.84-3.2397 4.8953c-3.0839 4.6598-10.281 9.2289-14.636 9.2911-0.9732 0.0139-4.0793-1.1395-6.9025-2.5632z" style="paint-order:stroke fill markers"/>
  </g>
  <g fill="#0381ed" stroke="#f3f3f0" stroke-linecap="round" stroke-linejoin="round" stroke-width="2.0436">
   <path transform="matrix(.26458 0 0 .26458 -590.65 76.556)" d="m1925.2-618.8c-5.5692-2.5703-9.0741-6.2123-11.449-11.897-1.5394-3.6843-1.7805-13.531-1.7805-72.705v-68.444l6.1937 0.074c10.679 0.12756 19.407-6.1746 22.404-16.177 0.9492-3.1683 1.3131-39.333 1.3131-130.51v-126.13h40.265v412.22l-2.8594 4.8792c-2.0417 3.4839-4.5736 5.7334-8.8541 7.8664-5.6646 2.8228-6.948 2.9859-23.313 2.962-14.372-0.021-18.101-0.38663-21.92-2.1491z" style="paint-order:stroke fill markers"/>
   <path transform="matrix(.26458 0 0 .26458 -590.65 76.556)" d="m2004.2-619.05c-2.8758-1.4476-6.2815-4.47-8.0529-7.1468l-3.0696-4.6384-0.297-206.87-0.2969-206.87h40.283l0.01 125.68c0 77.997 0.4315 127.21 1.1268 129.71 2.4666 8.8648 12.874 17.172 21.588 17.231l3.7389 0.0253v69.237c0 68.204-0.036 69.312-2.4402 74.278-1.4677 3.0317-4.2978 6.2715-7.1009 8.1286-4.4871 2.9727-5.3281 3.1-22.582 3.4162-16.494 0.30225-18.317 0.12872-22.904-2.18z" style="paint-order:stroke fill markers"/>
   <path transform="matrix(.26458 0 0 .26458 -590.65 76.556)" d="m2048.9-779.12c-4.0189-2.0266-5.8197-3.9441-8.2967-8.8344l-3.1636-6.246v-250.38h36.813v124.65c0 91.095-0.357 125.7-1.3263 128.56-2.1167 6.2405-5.5695 10.345-10.639 12.647-6.0634 2.7537-7.2078 2.7198-13.388-0.3964z" style="paint-order:stroke fill markers"/>
   <path transform="matrix(.26458 0 0 .26458 -590.65 76.556)" d="m2081.1-618.45c-5.2579-2.2806-7.8662-4.7435-10.51-9.9243-2.0685-4.0528-2.1785-7.8774-2.1785-75.776v-71.508l3.5952-4.0947c7.1549-8.149 6.7586-0.0427 6.7586-138.25v-126.58h44.866v125.55c0 92.901 0.3518 126.72 1.3529 130.07 0.7441 2.4836 3.3325 6.7646 5.7521 9.5134l4.3992 4.9977-0.025 69.999c-0.024 65.68-0.1567 70.283-2.1558 74.601-2.4797 5.3561-7.3823 10.267-11.986 12.006-5.1203 1.9346-35.064 1.4854-39.868-0.59805z" style="paint-order:stroke fill markers"/>
   <path transform="matrix(.26458 0 0 .26458 -590.65 76.556)" d="m2137.5-780.27c-2.0949-1.4236-4.8893-4.6592-6.2098-7.1901-2.3862-4.5734-2.4028-5.3779-2.7035-130.86l-0.3025-126.26h36.843v125.61c0 125.38 0 125.62-2.4238 130.61-4.8591 10.038-16.729 13.846-25.204 8.0864z" style="paint-order:stroke fill markers"/>
   <path transform="matrix(.26458 0 0 .26458 -590.65 76.556)" d="m2155.7-618.93c-5.3801-2.843-9.8052-8.1452-11.305-13.546-0.755-2.7183-1.1906-28.923-1.1947-71.866l-0.01-67.587 2.5885-6e-3c9.4205-0.0233 19.743-7.7655 22.465-16.849 1.0712-3.5753 1.4066-34.63 1.4066-130.24v-125.55h41.446l-0.303 206.21c-0.2783 189.38-0.4585 206.49-2.207 209.66-2.3401 4.242-6.1283 7.7673-10.981 10.219-2.9132 1.4719-7.2354 1.8496-20.708 1.8094-14.5-0.0433-17.645-0.37817-21.201-2.2569z" style="paint-order:stroke fill markers"/>
   <path transform="matrix(.26458 0 0 .26458 -590.65 76.556)" d="m2231.8-619.23c-2.8472-1.5144-6.7299-4.9583-8.6281-7.6533l-3.4513-4.8999-0.3-206.4-0.3-206.4h40.241l0.3121 126.83c0.2903 117.99 0.4524 127.13 2.3243 131.11 4.6369 9.8506 14.422 15.661 24.172 14.353l4.3701-0.58615-0.3216 69.783-0.3216 69.783-2.6112 4.888c-1.4361 2.6884-4.7615 6.3122-7.3898 8.053-4.6598 3.0862-5.2534 3.174-23.848 3.5291-18.264 0.34879-19.289 0.24785-24.247-2.3892z" style="paint-order:stroke fill markers"/>
   <path transform="matrix(.26458 0 0 .26458 -590.65 76.556)" d="m2278.2-777.77c-3.8981-1.1571-10.242-7.6155-11.986-12.202-0.6404-1.6845-1.0733-53.599-1.0733-128.72v-125.9h36.813v123.46c0 138.49 0.3969 131.64-8.0628 139.28-2.5291 2.2849-5.244 4.1615-6.0331 4.1701-0.7891 9e-3 -2.4701 0.23247-3.7356 0.49739-1.2655 0.26491-3.9307-2e-3 -5.9228-0.59353z" style="paint-order:stroke fill markers"/>
   <path transform="matrix(.26458 0 0 .26458 -590.65 76.556)" d="m2311.2-619.24c-2.8473-1.5081-6.73-4.9466-8.6282-7.6412l-3.4512-4.8992-0.3206-73.017-0.3207-73.017 2.4716-3.4709c5.7591-8.0879 5.6474-5.3466 5.6474-138.66v-124.64h43.716v124.64c0 134.98-0.1791 130.96 6.1991 139.32 1.6179 2.1213 5.3008 4.9988 8.1841 6.3946l5.2424 2.5378-0.6436 138.39-2.6112 4.888c-1.4361 2.6884-4.7611 6.3122-7.3887 8.053-4.661 3.0878-5.2426 3.1736-23.848 3.5178-18.229 0.33729-19.3 0.23183-24.248-2.3892z" style="paint-order:stroke fill markers"/>
   <path transform="matrix(.26458 0 0 .26458 -590.65 76.556)" d="m2369.1-777.76c-5.5047-1.6352-11.455-8.9631-12.954-15.953-0.8872-4.1368-1.2745-43.159-1.2745-128.41v-122.46h36.814v126.02c0 122.81-0.057 126.13-2.2504 130.43-2.3171 4.5418-8.3915 10.441-10.78 10.468-0.7424 9e-3 -2.3852 0.23247-3.6506 0.49739-1.2655 0.26491-3.9222 5e-5 -5.9037-0.58858z" style="paint-order:stroke fill markers"/>
   <path transform="matrix(.26458 0 0 .26458 -590.65 76.556)" d="m2390.6-619.24c-2.8473-1.5081-6.73-4.9466-8.6282-7.6411l-3.4513-4.8991-0.3212-70.502-0.3213-70.502 3.401-0.68021c1.8706-0.37412 5.3085-2.5876 7.6398-4.9189 8.5985-8.5985 7.973 1.8788 8.3205-139.37l0.3121-126.83h43.667l0.01 125.11c0 86.882 0.3905 126.51 1.2634 129.71 0.6913 2.5309 2.5153 6.2692 4.0533 8.3073l2.7963 3.7057-0.3208 72.222-0.3209 72.222-2.6111 4.888c-1.4362 2.6884-4.7611 6.3122-7.3887 8.053-4.661 3.0878-5.2427 3.1736-23.848 3.5178-18.229 0.33729-19.3 0.23183-24.248-2.3892z" style="paint-order:stroke fill markers"/>
   <path transform="matrix(.26458 0 0 .26458 -590.65 76.556)" d="m2459.1-778.25c-4.6085-1.6549-7.1255-4.0888-10.722-10.368-1.8303-3.1956-1.9998-12.802-2.2889-129.71l-0.3121-126.26h36.863l-0.025 125.68c-0.024 120.27-0.118 125.89-2.1756 130.42-2.4359 5.364-8.2157 10.224-13.33 11.208-1.8982 0.3652-5.5022-0.0725-8.0089-0.97262z" style="paint-order:stroke fill markers"/>
  </g>
  <g fill="#ae78d2" stroke="#f3f3f0" stroke-linecap="round" stroke-linejoin="round" stroke-width="2.0436">
   <path transform="matrix(.26458 0 0 .26458 -590.65 76.556)" d="m2470-619.24c-2.8473-1.5081-6.7299-4.9466-8.6281-7.6411l-3.4513-4.8991-0.3217-70.018-0.3216-70.018 6.8149 0.0326c10.216 0.0489 17.206-4.6402 21.665-14.533 1.9519-4.3303 2.0929-12.081 2.391-131.44l0.3168-126.83h40.231l-0.6 411.28-2.4033 4.6017c-1.3218 2.5309-4.5999 6.1548-7.2846 8.053l-4.8814 3.4513-19.175 0.35288c-18.338 0.33748-19.401 0.23324-24.352-2.3892z" style="paint-order:stroke fill markers"/>
   <path transform="matrix(.26458 0 0 .26458 -590.65 76.556)" d="m2551.1-618.26c-4.5376-2.0254-9.225-7.1151-11.443-12.425-1.5925-3.8125-1.7866-26.528-1.7866-209.09v-204.81h40.265l0.011 126.26 0.011 126.26 2.7126 5.7521c1.4919 3.1637 3.9529 6.8922 5.4689 8.2856 3.5849 3.2951 10.368 6.0946 14.768 6.0946h3.4882v139.9l-3.3208 5.2363c-5.4608 8.6109-10.125 10.179-30.117 10.125-11.3-0.0306-17.708-0.53722-20.057-1.5855z" style="paint-order:stroke fill markers"/>
   <path transform="matrix(.26458 0 0 .26458 -590.65 76.556)" d="m2594.5-778.93c-3.3193-1.6703-5.9396-4.2098-8.053-7.8049l-3.1327-5.329-0.6148-252.52h36.853l-0.025 125.68c-0.024 120.27-0.1179 125.89-2.1756 130.42-4.4302 9.7556-14.27 13.867-22.852 9.549z" style="paint-order:stroke fill markers"/>
   <path transform="matrix(.26458 0 0 .26458 -590.65 76.556)" d="m2625.5-619.05c-2.8752-1.4472-6.2819-4.4703-8.053-7.1461l-3.0696-4.6377-0.313-72.48-0.313-72.48 3.4183-3.5322c1.8801-1.9427 4.3506-5.603 5.4899-8.1339 1.9481-4.3275 2.0905-12.125 2.3885-130.86l0.3168-126.26h43.618l0.3072 127.41c0.2935 121.72 0.4028 127.59 2.4492 131.44 1.1781 2.2146 3.6487 5.6161 5.4901 7.5589l3.348 3.5324-0.3131 71.905-0.3132 71.905-2.7723 4.0451c-1.5248 2.2248-4.5908 5.2927-6.8133 6.8174-3.7816 2.5944-5.191 2.7934-21.962 3.1007-16.494 0.30225-18.318 0.12872-22.904-2.18z" style="paint-order:stroke fill markers"/>
   <path transform="matrix(.26458 0 0 .26458 -590.65 76.556)" d="m2683.3-779.97c-1.9297-1.2367-4.777-4.4636-6.3273-7.1708l-2.8187-4.9221-0.6148-252.52h36.853v251.45l-2.5884 5.1238c-1.4236 2.8181-4.3475 6.2927-6.4974 7.7215-5.0034 3.325-13.085 3.4643-18.006 0.31035z" style="paint-order:stroke fill markers"/>
   <path transform="matrix(.26458 0 0 .26458 -590.65 76.556)" d="m2702.4-618.41c-5.2818-2.3447-7.877-4.8052-10.51-9.965-2.0666-4.0492-2.1784-7.8425-2.1784-73.915 0-65.56 0.1181-69.647 2.0132-69.653 8.3151-0.0265 17.539-6.4475 21.475-14.949 2.3761-5.1327 2.3992-6.255 2.7134-131.44l0.3169-126.26h40.206v410.21l-2.5885 5.0664c-1.4236 2.7865-4.576 6.6494-7.0053 8.5843l-4.4168 3.518-18.016 0.28322c-14.201 0.22325-18.862-0.0921-22.009-1.489z" style="paint-order:stroke fill markers"/>
   <path transform="matrix(.26458 0 0 .26458 -590.65 76.556)" d="m2780.5-617.73c-5.218-1.5813-9.1116-4.8317-12.315-10.28l-3.1165-5.3013-0.3001-205.64-0.3-205.64h41.44l0.025 126.83c0.024 120.19 0.1349 127.08 2.1202 131.45 4.1276 9.0857 14.355 15.238 23.332 14.034l4.5013-0.60375-0.3213 70.548-0.3214 70.548-3.4512 4.8991c-1.8982 2.6945-5.7329 6.1036-8.5215 7.5759-4.69 2.476-6.3723 2.6694-22.433 2.5779-9.5497-0.0544-18.702-0.50465-20.338-1.0006z" style="paint-order:stroke fill markers"/>
   <path transform="matrix(.26458 0 0 .26458 -590.65 76.556)" d="m2822.6-778.7c-5.4735-2.5134-7.9263-5.079-10.31-10.784-1.5557-3.7233-1.7695-19.392-1.7695-129.67v-125.43h36.853l-0.3074 126.26-0.3073 126.26-3.2741 5.5702c-2.3333 3.9696-4.6473 6.1937-8.053 7.7401-5.9216 2.6888-7.0889 2.6939-12.832 0.0568z" style="paint-order:stroke fill markers"/>
   <path transform="matrix(.26458 0 0 .26458 -590.65 76.556)" d="m2859.8-617.73c-5.2181-1.5813-9.1116-4.8317-12.315-10.28l-3.1165-5.3013-0.3284-72.078-0.3284-72.078 2.9004-4.274c1.5953-2.3507 3.4226-6.154 4.0609-8.4518 0.7474-2.6907 1.1627-48.709 1.1668-129.29l0.01-125.11h43.667l0.3121 126.83 0.3121 126.83 3.4179 6.1711c3.4536 6.2353 9.7645 11.66 13.564 11.66 1.971 0 2.0527 3.3033 1.7462 70.653l-0.3215 70.653-3.4513 4.8991c-1.8982 2.6945-5.7328 6.1036-8.5215 7.5759-4.69 2.476-6.3722 2.6694-22.433 2.5779-9.5496-0.0544-18.702-0.50465-20.338-1.0006z" style="paint-order:stroke fill markers"/>
   <path transform="matrix(.26458 0 0 .26458 -590.65 76.556)" d="m2914.7-777.7c-4.2983-1.3209-8.4389-5.2407-11.178-10.582-2.1122-4.1188-2.1888-8.6792-2.1888-130.29v-126.02h36.813v123.46c0 138.49 0.3969 131.64-8.0628 139.28-2.5291 2.2849-5.244 4.1615-6.0331 4.1701-0.7891 9e-3 -2.4701 0.23476-3.7356 0.50247-1.2655 0.26773-3.7921 0.0285-5.6149-0.53163z" style="paint-order:stroke fill markers"/>
   <path transform="matrix(.26458 0 0 .26458 -590.65 76.556)" d="m2939.2-617.73c-5.218-1.5813-9.1116-4.8317-12.315-10.28l-3.1165-5.3013-0.659-139.47 3.4572-0.69145c1.9014-0.38028 5.4703-2.7046 7.9308-5.165 8.7302-8.7303 8.2529-0.58938 8.2529-140.76v-125.19h43.716v124.61c0 133.91-0.091 131.72 5.7827 139.19 2.3003 2.9243 2.3314 4.0954 2.0157 75.988l-0.3206 73.018-3.4513 4.8992c-1.8982 2.6945-5.7329 6.1037-8.5215 7.5759-4.69 2.476-6.3723 2.6694-22.433 2.5779-9.5496-0.0544-18.702-0.50465-20.338-1.0006z" style="paint-order:stroke fill markers"/>
   <path transform="matrix(.26458 0 0 .26458 -590.65 76.556)" d="m3004.6-778.16c-4.8025-1.7288-8.0922-5.0275-11.001-11.031-1.7915-3.6976-1.9767-14.29-2.2678-129.71l-0.317-125.68h36.902l-0.6048 255-3.2403 4.248c-5.7432 7.5293-12.044 9.8521-19.471 7.1782z" style="paint-order:stroke fill markers"/>
  </g>
  <g fill="#ff9ff3" stroke="#f3f3f0" stroke-linecap="round" stroke-linejoin="round" stroke-width="2.0436">
   <path transform="matrix(.26458 0 0 .26458 -590.65 76.556)" d="m3018.1-618.11c-5.8881-2.3702-9.2352-5.2065-12.149-10.295l-2.8061-4.8996-0.33-69.253-0.3299-69.253 6.8232 0.0326c9.9225 0.0475 16.359-4.1108 21.603-13.957 2.0497-3.8484 2.1584-9.6608 2.4565-131.44l0.312-127.41h40.241l-0.3 206.21c-0.2989 205.48-0.3083 206.23-2.656 210.22-1.2958 2.2058-4.5739 5.5708-7.2845 7.4777l-4.9286 3.4672-18.6 0.23888c-12.388 0.15911-19.753-0.22512-22.051-1.1504z" style="paint-order:stroke fill markers"/>
   <path transform="matrix(.26458 0 0 .26458 -590.65 76.556)" d="m3096.1-618.53c-5.0936-2.5108-10.25-8.6243-11.71-13.885-0.8211-2.9567-1.2088-69.517-1.2132-208.26l-0.01-203.91h40.235l0.3025 126.87 0.3025 126.87 2.9389 5.7104c3.7975 7.3788 10.137 11.877 18.064 12.815l6.0323 0.71444-0.028 66.277c-0.017 41.365-0.4745 68.214-1.2156 71.43-1.5613 6.7757-5.9978 12.42-11.852 15.078-6.4945 2.9492-36.044 3.1607-41.848 0.29949z" style="paint-order:stroke fill markers"/>
   <path transform="matrix(.26458 0 0 .26458 -590.65 76.556)" d="m3142.5-777.7c-4.3532-1.3368-9.7077-6.4393-12.054-11.486-1.6861-3.6276-1.903-16.478-2.1886-129.71l-0.317-125.68h36.872v126.02c0 122.81-0.057 126.13-2.2504 130.43-2.3171 4.5418-8.3915 10.441-10.78 10.468-0.7424 9e-3 -2.3851 0.23476-3.6506 0.50247-1.2655 0.26773-3.7999 0.0264-5.6321-0.53625z" style="paint-order:stroke fill markers"/>
   <path transform="matrix(.26458 0 0 .26458 -590.65 76.556)" d="m3172.3-618.2c-4.5766-2.071-9.731-7.3335-11.665-11.91-1.2624-2.9868-1.5646-17.434-1.5646-74.788 0-66.704 0.1253-71.165 2.0319-72.355 1.1175-0.69792 3.5766-4.058 5.4645-7.4669l3.4326-6.1979 0.3121-126.83 0.312-126.83h43.667v124.61c0 138.27-0.3146 132.38 7.5073 140.67l3.9969 4.238v70.802c0 69.799-0.035 70.873-2.4402 75.843-1.4676 3.0317-4.2978 6.2715-7.1009 8.1286-4.4967 2.9792-5.2907 3.0977-22.581 3.371-13.146 0.20777-18.84-0.13285-21.372-1.2785z" style="paint-order:stroke fill markers"/>
   <path transform="matrix(.26458 0 0 .26458 -590.65 76.556)" d="m3226.9-781.84c-8.4597-7.6428-8.0628-0.78695-8.0628-139.28v-123.46h37.964v121.79c0 76.771-0.4273 124.04-1.156 127.88-2.0572 10.847-9.0622 17.227-18.916 17.227-4.3928 0-5.9674-0.66552-9.8292-4.1544z" style="paint-order:stroke fill markers"/>
   <path transform="matrix(.26458 0 0 .26458 -590.65 76.556)" d="m3246.6-619.08c-3.2379-1.6295-6.2173-4.3957-8.3406-7.7438l-3.3032-5.2087v-139.9l3.1637-0.0253c4.1876-0.0334 11.974-3.642 15.176-7.034 1.4123-1.4956 3.6876-4.7901 5.0561-7.321l2.4883-4.6017 0.312-126.83 0.3121-126.83h40.234l-0.2969 206.87-0.2969 206.87-2.7723 4.0458c-1.5248 2.2252-4.5907 5.2934-6.8132 6.8181-3.7816 2.5944-5.191 2.7934-21.962 3.1007-16.549 0.30325-18.306 0.1343-22.958-2.2067z" style="paint-order:stroke fill markers"/>
   <path transform="matrix(.26458 0 0 .26458 -590.65 76.556)" d="m3324.7-618.46c-2.2145-0.95924-5.4963-3.1392-7.2928-4.8443-6.9923-6.6366-6.5122 9.2355-6.5122-215.3v-205.98h40.265l0.01 125.68c0 85.056 0.401 127.1 1.227 130.08 2.717 9.7843 14.449 17.864 24.067 16.574l4.611-0.61847v68.953c0 74.388 0.065 73.531-6.0946 80.232-5.3481 5.8174-10.279 7.0052-28.993 6.9838-12.847-0.0147-18.285-0.46543-21.283-1.7638z" style="paint-order:stroke fill markers"/>
   <path transform="matrix(.26458 0 0 .26458 -590.65 76.556)" d="m3367.6-778.77c-3.0281-1.3748-6.0147-4.0007-8.0529-7.0805l-3.2398-4.8952-0.6146-253.84h36.853v124.65c0 91.095-0.357 125.7-1.3264 128.56-2.1167 6.2405-5.5695 10.345-10.639 12.647-5.8774 2.6692-7.013 2.6654-12.98-0.0438z" style="paint-order:stroke fill markers"/>
   <path transform="matrix(.26458 0 0 .26458 -590.65 76.556)" d="m3404.1-618.46c-4.7824-2.0715-9.9311-6.7421-12.182-11.051-1.3474-2.5792-1.6229-15.536-1.6229-76.325 0-69.329 0.1128-73.381 2.1248-76.273 4.8075-6.9087 4.7777-6.056 4.7777-136.67v-125.8h44.866l0.025 126.83c0.024 120.19 0.1349 127.08 2.1202 131.45 2.3795 5.2377 9.159 11.687 13.406 12.753l2.8549 0.71655v68.938c0 74.371 0.065 73.516-6.0946 80.216-5.348 5.8174-10.279 7.0052-28.993 6.9838-12.847-0.0147-18.285-0.46543-21.283-1.7638z" style="paint-order:stroke fill markers"/>
   <path transform="matrix(.26458 0 0 .26458 -590.65 76.556)" d="m3458.7-778.68c-5.4781-2.5327-7.9289-5.0996-10.31-10.798-1.5557-3.7233-1.7695-19.392-1.7695-129.67v-125.43h36.853l-0.3074 126.26-0.3073 126.26-2.8323 4.9461c-4.9656 8.6719-13.507 12.05-21.327 8.4353z" style="paint-order:stroke fill markers"/>
   <path transform="matrix(.26458 0 0 .26458 -590.65 76.556)" d="m3483.5-618.46c-4.7824-2.0715-9.9311-6.7421-12.182-11.051-1.3452-2.575-1.6229-15.103-1.6229-73.215v-70.108l2.7874-0.6996c4.5466-1.1411 10.011-6.5361 12.896-12.733l2.7004-5.7991 0.011-126.26 0.011-126.26h43.716v122.94c0 78.525 0.4227 125.17 1.17 129.11 0.6436 3.3934 2.4555 8.1122 4.0265 10.486l2.8564 4.3163v71.388c0 77.04 0.08 75.949-6.0946 82.666-5.348 5.8174-10.279 7.0052-28.993 6.9838-12.847-0.0147-18.285-0.46543-21.283-1.7638z" style="paint-order:stroke fill markers"/>
   <path transform="matrix(.26458 0 0 .26458 -590.65 76.556)" d="m3549.8-778.17c-4.9228-1.7874-6.8043-3.7472-10.022-10.439-2.141-4.4529-2.2133-8.6652-2.2378-130.29l-0.025-125.68h36.863l-0.3122 126.26c-0.2875 116.28-0.4667 126.54-2.2666 129.83-2.2005 4.0172-9.4731 10.804-11.603 10.828-0.7689 9e-3 -2.4333 0.25755-3.6988 0.55311-1.2655 0.29557-4.2792-0.18092-6.6973-1.0589z" style="paint-order:stroke fill markers"/>
  </g>
 </g>
</svg>
